<svg width="28" height="28" viewBox="0 0 28 28" fill="none" xmlns="http://www.w3.org/2000/svg">
<path d="M25.6666 14C25.6666 7.57171 20.4283 2.33337 14 2.33337C12.3316 2.33337 10.675 2.71837 9.15831 3.40671C8.43498 2.74171 7.47831 2.33337 6.41665 2.33337C4.16498 2.33337 2.33331 4.16504 2.33331 6.41671C2.33331 7.47837 2.75331 8.43504 3.40665 9.15837C2.71831 10.675 2.33331 12.32 2.33331 14C2.33331 20.4284 7.57165 25.6667 14 25.6667C15.6683 25.6667 17.325 25.2817 18.8416 24.5934C19.565 25.2584 20.5216 25.6667 21.5833 25.6667C23.835 25.6667 25.6666 23.835 25.6666 21.5834C25.6666 20.5217 25.2466 19.565 24.5933 18.8417C25.2816 17.325 25.6666 15.68 25.6666 14ZM4.66665 6.41671C4.66665 5.44837 5.44831 4.66671 6.41665 4.66671C7.38498 4.66671 8.16665 5.44837 8.16665 6.41671C8.16665 7.38504 7.38498 8.16671 6.41665 8.16671C5.44831 8.16671 4.66665 7.38504 4.66665 6.41671ZM13.7316 19.7284C13.0433 20.2534 12.2266 20.51 11.3983 20.51C10.395 20.51 9.39165 20.125 8.63331 19.3667C7.89831 18.6317 7.48998 17.6517 7.48998 16.625C7.48998 15.5984 7.89831 14.6184 8.63331 13.8834L10.5583 11.9584C11.9233 10.5934 14.1166 10.4417 15.645 11.6084C16.1583 12.005 16.2516 12.7284 15.8666 13.2417C15.4816 13.755 14.7466 13.8484 14.2333 13.4634C13.6266 13.0084 12.7633 13.0667 12.215 13.615L10.29 15.54C9.99831 15.8317 9.83498 16.2284 9.83498 16.6367C9.83498 17.045 9.99831 17.4417 10.29 17.7334C10.8383 18.2817 11.7133 18.3517 12.3083 17.885C12.8216 17.4884 13.5566 17.5934 13.9416 18.1067C14.3383 18.62 14.2333 19.355 13.72 19.74L13.7316 19.7284ZM17.4183 16.0534C16.6716 16.8 15.6683 17.185 14.665 17.185C13.8483 17.185 13.02 16.9284 12.3316 16.4034C11.8183 16.0067 11.725 15.2834 12.11 14.77C12.495 14.2567 13.23 14.1634 13.7433 14.5484C14.35 15.015 15.2133 14.945 15.7616 14.3967L17.6866 12.4717C17.9783 12.18 18.1416 11.7834 18.1416 11.375C18.1416 10.9667 17.9783 10.57 17.6866 10.2784C17.1383 9.73004 16.2633 9.66004 15.6683 10.1267C15.155 10.5234 14.42 10.4184 14.035 9.90504C13.6383 9.39171 13.7433 8.65671 14.2566 8.27171C15.785 7.10504 17.9783 7.25671 19.3433 8.63337C20.0783 9.36837 20.4866 10.3484 20.4866 11.375C20.4866 12.4017 20.0783 13.3817 19.3433 14.1167L17.4183 16.0417V16.0534ZM21.5833 23.3334C20.615 23.3334 19.8333 22.5517 19.8333 21.5834C19.8333 20.615 20.615 19.8334 21.5833 19.8334C22.5516 19.8334 23.3333 20.615 23.3333 21.5834C23.3333 22.5517 22.5516 23.3334 21.5833 23.3334Z" fill="white"/>
</svg>
