<svg width="24" height="24" viewBox="0 0 24 24" fill="none" xmlns="http://www.w3.org/2000/svg">
<g clip-path="url(#clip0_0_2188)">
<path d="M16.2164 18.3281H14.8683V16.4827C13.0248 17.0904 11.0434 17.0868 9.24329 16.5187V18.3281H7.77891C7.15604 18.3281 6.84066 19.0815 7.27829 19.5253L11.4872 23.7909C11.7618 24.0694 12.2112 24.0696 12.487 23.7919L16.7156 19.5262C17.1549 19.0838 16.8404 18.3281 16.2164 18.3281Z" fill="white"/>
<path d="M5.29219 1.51593C2.29313 2.01609 0 4.62937 0 7.76765C0 10.9064 2.29312 13.5187 5.29172 14.0189C2.00264 10.4918 2.0047 5.04126 5.29219 1.51593Z" fill="white"/>
<path d="M18.7078 1.51593C21.9909 5.03657 22.002 10.4869 18.7083 14.0189C21.7069 13.5187 24 10.9064 24 7.76765C24 4.62937 21.7069 2.01609 18.7078 1.51593Z" fill="white"/>
<path d="M12 0C7.71683 0 4.23224 3.48459 4.23224 7.76775C4.23224 12.0509 7.71683 15.5355 12 15.5355C16.2831 15.5355 19.7677 12.0509 19.7677 7.76775C19.7677 3.48459 16.2831 0 12 0ZM11.4347 6.71227L13.1829 7.56703C13.762 7.8502 14.1363 8.44978 14.1363 9.09445C14.1363 9.93169 13.5278 10.629 12.73 10.7687V11.2892C12.73 11.6775 12.4152 11.9924 12.0269 11.9924C11.6386 11.9924 11.3238 11.6775 11.3238 11.2892V10.7947H10.5714C10.1831 10.7947 9.8683 10.4799 9.8683 10.0916C9.8683 9.70327 10.1831 9.38845 10.5714 9.38845H12.436C12.7464 9.38845 12.8439 8.96658 12.5652 8.83031L10.8171 7.97555C9.35765 7.26197 9.62436 5.01516 11.2699 4.72692V4.25334C11.2699 3.86503 11.5847 3.55022 11.973 3.55022C12.3613 3.55022 12.6762 3.86503 12.6762 4.25334V4.701H13.4332C13.8215 4.701 14.1363 5.01581 14.1363 5.40413C14.1363 5.79244 13.8215 6.10725 13.4332 6.10725H11.5639C11.2355 6.10725 11.1645 6.58013 11.4347 6.71227Z" fill="white"/>
</g>
<defs>
<clipPath id="clip0_0_2188">
<rect width="24" height="24" fill="white"/>
</clipPath>
</defs>
</svg>
