<svg width="28" height="28" viewBox="0 0 28 28" fill="none" xmlns="http://www.w3.org/2000/svg">
<path d="M13.8353 21.5601C13.8356 20.275 14.1824 19.0138 14.839 17.909C15.4956 16.8043 16.4378 15.897 17.5665 15.2825C18.6951 14.668 19.9686 14.3691 21.2528 14.4172C22.537 14.4652 23.7845 14.8585 24.8641 15.5557C24.8717 15.026 24.8758 14.4608 24.8758 13.8509C24.8758 10.7151 24.7691 8.75797 24.5584 6.73075H24.5884C24.4718 5.60112 24.0404 4.52691 23.3433 3.63046C22.6461 2.734 21.7113 2.05132 20.6451 1.66017C20.5888 1.63884 20.5324 1.61853 20.4755 1.59923C20.0542 1.4576 19.6186 1.36275 19.1765 1.31637L19.1344 1.3118C17.4479 1.13863 17.1772 1 13.621 1C10.0647 1 9.48933 1.13863 7.80439 1.31434L7.76224 1.31891C7.29819 1.36764 6.84133 1.46989 6.40077 1.6236V1.60075C5.30227 1.97424 4.3339 2.65487 3.61043 3.56194C2.88696 4.46902 2.43875 5.56451 2.31891 6.71856C2.10766 8.74984 2 10.709 2 13.8509C2 16.9928 2.10766 18.952 2.31891 20.9832C2.46316 22.3694 3.07976 23.6637 4.06524 24.6491C5.05072 25.6345 6.34512 26.2509 7.73126 26.3951L7.77341 26.3996C9.45988 26.5753 9.73004 26.714 13.2863 26.714C14.4644 26.714 15.3176 26.6987 15.9874 26.6718C15.3053 26.0068 14.7634 25.2119 14.3937 24.3339C14.0241 23.4559 13.8342 22.5127 13.8353 21.5601ZM7.89376 7.76163H18.98C19.3008 7.76163 19.6085 7.88907 19.8353 8.11592C20.0622 8.34277 20.1896 8.65044 20.1896 8.97125C20.1896 9.29207 20.0622 9.59974 19.8353 9.82659C19.6085 10.0534 19.3008 10.1809 18.98 10.1809H7.8963C7.57549 10.1809 7.26781 10.0534 7.04097 9.82659C6.81412 9.59974 6.68667 9.29207 6.68667 8.97125C6.68667 8.65044 6.81412 8.34277 7.04097 8.11592C7.26781 7.88907 7.57549 7.76163 7.8963 7.76163H7.89376ZM7.89376 15.3571C7.57717 15.3506 7.27574 15.2203 7.05414 14.9941C6.83253 14.7679 6.70842 14.4639 6.70842 14.1472C6.70842 13.8306 6.83253 13.5265 7.05414 13.3003C7.27574 13.0741 7.57717 12.9438 7.89376 12.9373H14.2166C14.3776 12.934 14.5376 12.9629 14.6873 13.0222C14.837 13.0815 14.9733 13.1701 15.0883 13.2828C15.2033 13.3955 15.2947 13.53 15.3571 13.6784C15.4194 13.8268 15.4516 13.9862 15.4516 14.1472C15.4516 14.3082 15.4194 14.4676 15.3571 14.616C15.2947 14.7645 15.2033 14.899 15.0883 15.0116C14.9733 15.1243 14.837 15.2129 14.6873 15.2722C14.5376 15.3315 14.3776 15.3604 14.2166 15.3571H7.89376Z" fill="white"/>
<path d="M20.9842 16.1199C19.9082 16.1199 18.8564 16.4389 17.9618 17.0367C17.0671 17.6345 16.3698 18.4842 15.9581 19.4782C15.5463 20.4723 15.4386 21.5662 15.6485 22.6215C15.8584 23.6768 16.3765 24.6462 17.1374 25.407C17.8982 26.1678 18.8676 26.686 19.9229 26.8959C20.9782 27.1058 22.072 26.9981 23.0661 26.5863C24.0602 26.1746 24.9099 25.4773 25.5077 24.5826C26.1054 23.688 26.4245 22.6361 26.4245 21.5602C26.4245 20.1173 25.8513 18.7335 24.8311 17.7133C23.8108 16.693 22.4271 16.1199 20.9842 16.1199ZM23.1404 22.3564H20.8761C20.7043 22.3564 20.5397 22.2882 20.4182 22.1668C20.2968 22.0453 20.2286 21.8807 20.2286 21.7089V18.2304C20.2286 18.0587 20.2968 17.894 20.4182 17.7725C20.5397 17.6511 20.7043 17.5829 20.8761 17.5829C21.0478 17.5829 21.2125 17.6511 21.3339 17.7725C21.4553 17.894 21.5235 18.0587 21.5235 18.2304V21.0615H23.1404C23.3122 21.0615 23.4768 21.1297 23.5983 21.2511C23.7197 21.3725 23.7879 21.5372 23.7879 21.7089C23.7879 21.8807 23.7197 22.0453 23.5983 22.1668C23.4768 22.2882 23.3122 22.3564 23.1404 22.3564Z" fill="white"/>
</svg>
