<svg width="28" height="28" viewBox="0 0 28 28" fill="none" xmlns="http://www.w3.org/2000/svg">
<path fill-rule="evenodd" clip-rule="evenodd" d="M23.8921 8.84124L17.6085 3.64578C15.4918 1.89574 12.5082 1.89574 10.3915 3.64578L4.10778 8.84124C2.97567 9.77728 2.33331 11.1965 2.33331 12.6773V20.7793C2.33331 23.4103 4.35649 25.6666 6.99998 25.6666H9.33331C10.622 25.6666 11.6666 24.622 11.6666 23.3333V19.539C11.6666 18.0603 12.7774 16.9851 14 16.9851C15.2225 16.9851 16.3333 18.0603 16.3333 19.539V23.3333C16.3333 24.622 17.3779 25.6666 18.6666 25.6666H21C23.6435 25.6666 25.6666 23.4103 25.6666 20.7793V12.6773C25.6666 11.1965 25.0243 9.77728 23.8921 8.84124Z" fill="white"/>
</svg>
