<svg width="24" height="24" viewBox="0 0 24 24" fill="none" xmlns="http://www.w3.org/2000/svg">
<g clip-path="url(#clip0_0_2195)">
<path d="M22.608 16.3618C22.4588 15.8049 22.1015 15.3393 21.6022 15.051C21.4821 14.9817 21.356 14.9243 21.2259 14.8794V9.12055C21.356 9.07569 21.482 9.01832 21.6021 8.94904C22.1015 8.66071 22.4588 8.19519 22.608 7.63817C22.7572 7.0812 22.6806 6.49943 22.3923 6.00002C22.0078 5.33407 21.2909 4.92035 20.5214 4.92035C20.1441 4.92035 19.7713 5.02047 19.4433 5.20985C19.3222 5.27974 19.2095 5.36013 19.1061 5.44962L14.1195 2.57059C14.1453 2.43728 14.1589 2.2996 14.1589 2.15884C14.1589 0.968441 13.1904 0 12 0C10.8096 0 9.8412 0.968441 9.8412 2.15884C9.8412 2.2996 9.85475 2.43728 9.88062 2.57059L4.89395 5.44962C4.79049 5.36008 4.67781 5.27974 4.55673 5.20985C4.2287 5.02047 3.85594 4.92035 3.47865 4.92035C2.7091 4.92035 1.99219 5.33407 1.60767 6.00002C1.31934 6.49943 1.24275 7.08115 1.392 7.63817C1.54125 8.19514 1.89848 8.66071 2.39784 8.94899C2.51794 9.01832 2.64403 9.07569 2.77416 9.12055V14.8794C2.64403 14.9243 2.51799 14.9817 2.39789 15.051C1.89848 15.3393 1.54125 15.8048 1.39204 16.3618C1.24279 16.9188 1.31939 17.5006 1.60772 18C1.99219 18.6659 2.7091 19.0797 3.47865 19.0797C3.85594 19.0797 4.2287 18.9795 4.55673 18.7902C4.67781 18.7203 4.79049 18.6399 4.89395 18.5504L9.88062 21.4294C9.85475 21.5627 9.8412 21.7004 9.8412 21.8412C9.8412 23.0316 10.8096 24 12 24C13.1904 24 14.1589 23.0316 14.1589 21.8412C14.1589 21.7004 14.1453 21.5627 14.1195 21.4294L19.1061 18.5504C19.2096 18.6399 19.3223 18.7203 19.4433 18.7902C19.7714 18.9795 20.1441 19.0797 20.5214 19.0797C21.291 19.0797 22.0079 18.6659 22.3924 18C22.6807 17.5006 22.7572 16.9188 22.608 16.3618ZM12 19.6824C11.4591 19.6824 10.964 19.8823 10.5848 20.2123L5.59661 17.3323C5.69673 16.821 5.60992 16.2968 5.3469 15.8412C5.08384 15.3856 4.66515 15.048 4.18046 14.8803V9.1198C4.66515 8.95203 5.08384 8.61449 5.3469 8.15886C5.60992 7.70328 5.69673 7.17912 5.59661 6.66776L10.5848 3.7878C10.964 4.1177 11.4591 4.31767 12 4.31767C12.541 4.31767 13.036 4.1177 13.4152 3.7878L18.4035 6.66771C18.3033 7.17908 18.3902 7.70323 18.6532 8.15881C18.9162 8.61449 19.3349 8.95204 19.8196 9.11975V14.8802C19.3349 15.048 18.9162 15.3855 18.6532 15.8411C18.3902 16.2967 18.3033 16.8209 18.4035 17.3322L13.4152 20.2122C13.036 19.8823 12.5409 19.6824 12 19.6824Z" fill="white"/>
<path d="M6.66199 9.64528V15.169L11.2969 17.829V12.3052L6.66199 9.64528Z" fill="white"/>
<path d="M16.6349 8.42739L12 5.76747L7.36511 8.42739L12 11.0873L16.6349 8.42739Z" fill="white"/>
<path d="M17.338 9.64528L12.7031 12.3052V17.829L17.338 15.169V9.64528Z" fill="white"/>
</g>
<defs>
<clipPath id="clip0_0_2195">
<rect width="24" height="24" fill="white"/>
</clipPath>
</defs>
</svg>
