<svg width="24" height="24" viewBox="0 0 24 24" fill="none" xmlns="http://www.w3.org/2000/svg">
<path d="M18.1273 7.80105C17.6817 7.52094 17.1088 7.52094 16.6154 7.80105L13.1618 9.97608L10.8064 11.3931L7.35279 13.5682C6.90716 13.8483 6.33422 13.8483 5.84085 13.5682L3.08753 11.871C2.64191 11.5909 2.33952 11.0636 2.33952 10.5034V7.15844C2.33952 6.5982 2.61008 6.07093 3.08753 5.79081L5.7931 4.14307C6.23873 3.86295 6.81167 3.86295 7.30504 4.14307L10.0106 5.79081C10.4562 6.07093 10.7586 6.5982 10.7586 7.15844V9.33346L13.1141 7.86697V5.69195C13.1141 5.13171 12.8435 4.60444 12.366 4.32432L7.35279 1.21009C6.90716 0.929971 6.33422 0.929971 5.84085 1.21009L0.748011 4.32432C0.254643 4.60444 0 5.13171 0 5.69195V11.9534C0 12.5136 0.270558 13.0409 0.748011 13.321L5.84085 16.4352C6.28647 16.7153 6.85942 16.7153 7.35279 16.4352L10.8064 14.3096L13.1618 12.8431L16.6154 10.7176C17.061 10.4374 17.634 10.4374 18.1273 10.7176L20.8329 12.3653C21.2785 12.6454 21.5809 13.1727 21.5809 13.7329V17.0778C21.5809 17.6381 21.3103 18.1654 20.8329 18.4455L18.1273 20.1426C17.6817 20.4228 17.1088 20.4228 16.6154 20.1426L13.9098 18.4949C13.4642 18.2148 13.1618 17.6875 13.1618 17.1273V14.9523L10.8064 16.4187V18.5938C10.8064 19.154 11.0769 19.6813 11.5544 19.9614L16.6472 23.0756C17.0928 23.3557 17.6658 23.3557 18.1592 23.0756L23.252 19.9614C23.6976 19.6813 24 19.154 24 18.5938V12.3323C24 11.7721 23.7294 11.2448 23.252 10.9647L18.1273 7.80105Z" fill="white"/>
</svg>
