<svg width="32" height="32" viewBox="0 0 32 32" fill="none" xmlns="http://www.w3.org/2000/svg">
<g filter="url(#filter0_b_2036_424)">
<rect width="32" height="32" rx="8" fill="url(#paint0_linear_2036_424)"/>
<path d="M16.8675 16.3308C16.8675 19.2727 14.4404 21.6616 11.4337 21.6616C8.42707 21.6616 6 19.2727 6 16.3308C6 13.3888 8.42707 11 11.4337 11C14.4404 11 16.8675 13.3888 16.8675 16.3308ZM22.8204 16.3308C22.8204 19.0962 21.6009 21.3438 20.1036 21.3438C18.6063 21.3438 17.3867 19.0962 17.3867 16.3308C17.3867 13.5654 18.6063 11.3177 20.1036 11.3177C21.6009 11.3177 22.8204 13.5536 22.8204 16.3308ZM25.2596 16.3308C25.2596 18.8138 24.837 20.826 24.3057 20.826C23.7744 20.826 23.3517 18.8138 23.3517 16.3308C23.3517 13.8478 23.7744 11.8355 24.3057 11.8355C24.837 11.8355 25.2596 13.8478 25.2596 16.3308Z" fill="white"/>
</g>
<defs>
<filter id="filter0_b_2036_424" x="-80" y="-80" width="192" height="192" filterUnits="userSpaceOnUse" color-interpolation-filters="sRGB">
<feFlood flood-opacity="0" result="BackgroundImageFix"/>
<feGaussianBlur in="BackgroundImageFix" stdDeviation="40"/>
<feComposite in2="SourceAlpha" operator="in" result="effect1_backgroundBlur_2036_424"/>
<feBlend mode="normal" in="SourceGraphic" in2="effect1_backgroundBlur_2036_424" result="shape"/>
</filter>
<linearGradient id="paint0_linear_2036_424" x1="16.8718" y1="3.26912" x2="16.8718" y2="29.4061" gradientUnits="userSpaceOnUse">
<stop stop-color="white" stop-opacity="0.1"/>
<stop offset="1" stop-color="white" stop-opacity="0.03"/>
</linearGradient>
</defs>
</svg>
