<svg width="20" height="20" viewBox="0 0 20 20" fill="none" xmlns="http://www.w3.org/2000/svg">
<path fill-rule="evenodd" clip-rule="evenodd" d="M8.61422 2.61618C8.85847 2.31648 9.22766 2.14668 9.61417 2.15627C9.95301 2.16467 10.2089 2.33448 10.3378 2.4262C10.4751 2.52397 10.6315 2.65804 10.7866 2.791C10.7942 2.79752 10.8018 2.80404 10.8094 2.81055L17.8683 8.86107C17.8737 8.8657 17.8792 8.87038 17.8847 8.87511C17.9717 8.94965 18.0728 9.03623 18.1542 9.11918C18.2464 9.21311 18.3754 9.36228 18.4527 9.57737C18.5508 9.85055 18.5508 10.1494 18.4527 10.4225C18.3754 10.6376 18.2464 10.7868 18.1542 10.8807C18.0728 10.9637 17.9717 11.0503 17.8846 11.1248C17.8791 11.1296 17.8737 11.1342 17.8683 11.1388L10.7866 17.2089C10.6315 17.3419 10.4751 17.4759 10.3378 17.5737C10.2089 17.6654 9.95301 17.8352 9.61417 17.8436C9.22767 17.8532 8.85848 17.6834 8.61422 17.3837C8.40009 17.121 8.36249 16.8162 8.34826 16.6587C8.3331 16.4908 8.33313 16.2848 8.33317 16.0805L8.33317 13.4969C7.54801 13.6327 6.78318 13.8764 6.06091 14.2229C4.93481 14.7631 3.93878 15.5404 3.14104 16.5014C2.91676 16.7715 2.54718 16.8721 2.2169 16.7529C1.88662 16.6337 1.66651 16.3202 1.66651 15.9691L1.66651 15.4591C1.66764 13.2752 2.47279 11.1676 3.92832 9.53945C5.10534 8.22282 6.64101 7.29388 8.33317 6.85706L8.33317 3.94944C8.33317 3.93944 8.33317 3.92943 8.33317 3.91942C8.33313 3.71515 8.33309 3.50917 8.34826 3.34124C8.36248 3.18371 8.40009 2.87891 8.61422 2.61618ZM9.99984 4.31181L9.99984 7.52882C9.99984 7.93365 9.70889 8.27992 9.31011 8.34968C7.71527 8.6287 6.2556 9.43684 5.17087 10.6502C4.35427 11.5637 3.78962 12.6627 3.51804 13.8397C4.08339 13.4058 4.69374 13.0302 5.34003 12.7202C6.52378 12.1523 7.8034 11.816 9.1101 11.7273C9.34039 11.7117 9.56683 11.7923 9.73547 11.9499C9.90411 12.1074 9.99984 12.3279 9.99984 12.5587L9.99984 15.6881L16.636 9.99996L9.99984 4.31181Z" fill="white"/>
</svg>
