<svg width="32" height="32" viewBox="0 0 32 32" fill="none" xmlns="http://www.w3.org/2000/svg">
<g filter="url(#filter0_b_2036_418)">
<rect width="32" height="32" rx="8" fill="url(#paint0_linear_2036_418)"/>
<path fill-rule="evenodd" clip-rule="evenodd" d="M8.60389 15.0924C12.9372 13.2044 15.8267 11.9598 17.2725 11.3585C21.4005 9.6415 22.2583 9.34323 22.8173 9.33336C22.9403 9.33121 23.2153 9.36169 23.3933 9.50621C23.6575 9.72059 23.659 10.1859 23.6297 10.4939C23.406 12.8443 22.4381 18.5482 21.9456 21.1807C21.7372 22.2946 21.327 22.6681 20.9298 22.7046C20.0666 22.7841 19.4111 22.1342 18.575 21.5862C17.2668 20.7285 16.5277 20.1947 15.2578 19.3579C13.7902 18.3908 14.7416 17.8592 15.5779 16.9905C15.7968 16.7632 19.6001 13.3038 19.6737 12.99C19.683 12.9507 19.6915 12.8044 19.6046 12.7272C19.5177 12.6499 19.3894 12.6763 19.2968 12.6973C19.1656 12.7271 17.0757 14.1085 13.0269 16.8415C12.4337 17.2489 11.8964 17.4473 11.415 17.4369C10.8842 17.4255 9.86331 17.1369 9.10435 16.8901C8.17346 16.5876 7.4336 16.4275 7.49805 15.9137C7.53162 15.6459 7.90021 15.3722 8.60389 15.0924Z" fill="white"/>
</g>
<defs>
<filter id="filter0_b_2036_418" x="-80" y="-80" width="192" height="192" filterUnits="userSpaceOnUse" color-interpolation-filters="sRGB">
<feFlood flood-opacity="0" result="BackgroundImageFix"/>
<feGaussianBlur in="BackgroundImageFix" stdDeviation="40"/>
<feComposite in2="SourceAlpha" operator="in" result="effect1_backgroundBlur_2036_418"/>
<feBlend mode="normal" in="SourceGraphic" in2="effect1_backgroundBlur_2036_418" result="shape"/>
</filter>
<linearGradient id="paint0_linear_2036_418" x1="16.8718" y1="3.26912" x2="16.8718" y2="29.4061" gradientUnits="userSpaceOnUse">
<stop stop-color="white" stop-opacity="0.1"/>
<stop offset="1" stop-color="white" stop-opacity="0.03"/>
</linearGradient>
</defs>
</svg>
