<svg width="28" height="28" viewBox="0 0 28 28" fill="none" xmlns="http://www.w3.org/2000/svg">
<path d="M22.8115 2.44134H5.11082C5.11056 2.44134 5.11109 2.44134 5.11082 2.44134C3.25578 2.44134 1.75 3.94631 1.75 5.80131V8.88127C1.75 9.55504 2.2925 10.0975 2.9575 10.0975H6.80774V22.9338C6.80774 24.3813 7.98523 25.5588 9.43274 25.5588H23.625C25.0725 25.5588 26.25 24.3813 26.25 22.9338V5.8012C26.25 4.9074 25.8979 4.06316 25.2588 3.424C24.6256 2.78997 23.7839 2.44134 22.8115 2.44134ZM6.80753 8.34753H3.5V5.80131C3.5 4.9089 4.226 4.19155 5.18837 4.19134H5.18928C6.08163 4.19166 6.80753 4.90895 6.80753 5.80131V8.34753ZM20.9475 19.3026H12.1013C11.62 19.3026 11.2263 18.9088 11.2263 18.4276C11.2263 17.9463 11.62 17.5526 12.1013 17.5526H20.9475C21.4375 17.5526 21.8225 17.9463 21.8225 18.4276C21.8225 18.9088 21.4375 19.3026 20.9475 19.3026ZM20.9475 14.8751H12.1013C11.62 14.8751 11.2263 14.4901 11.2263 14.0001C11.2263 13.5188 11.62 13.1251 12.1013 13.1251H20.9475C21.4375 13.1251 21.8225 13.5188 21.8225 14.0001C21.8225 14.4901 21.4375 14.8751 20.9475 14.8751ZM20.9475 10.4563H12.1013C11.62 10.4563 11.2263 10.0626 11.2263 9.58131C11.2263 9.09132 11.62 8.70631 12.1013 8.70631H20.9475C21.4375 8.70631 21.8225 9.09132 21.8225 9.58131C21.8225 10.0626 21.4375 10.4563 20.9475 10.4563Z" fill="white"/>
</svg>
