<svg width="29" height="28" viewBox="0 0 29 28" fill="none" xmlns="http://www.w3.org/2000/svg">
<path d="M14.5 6.125C16.1899 6.125 17.5625 4.75234 17.5625 3.0625C17.5625 1.37266 16.1899 0 14.5 0C12.8102 0 11.4375 1.37266 11.4375 3.0625C11.4375 4.75234 12.8102 6.125 14.5 6.125Z" fill="white"/>
<path d="M24.125 6.16874L24.0977 6.17421L24.0758 6.17968C24.0211 6.19609 23.9664 6.21249 23.9117 6.2289C22.8945 6.52968 17.9563 7.91874 14.4727 7.91874C11.2406 7.91874 6.74532 6.71562 5.30704 6.30546C5.16485 6.25077 5.01719 6.20156 4.86954 6.16327C3.83047 5.88984 3.11954 6.94531 3.11954 7.90781C3.11954 8.86484 3.97813 9.31874 4.84219 9.64687V9.66327L10.0484 11.2875C10.5789 11.4898 10.7211 11.6976 10.7922 11.8781C11.0164 12.4578 10.8359 13.6062 10.7758 14.0055L10.4586 16.4664L8.70313 26.1078C8.69766 26.1351 8.69219 26.1625 8.68673 26.1898L8.67579 26.2609C8.55001 27.1414 9.19532 28 10.4258 28C11.4977 28 11.9734 27.2617 12.1758 26.2555C12.1758 26.2555 13.707 17.6367 14.4727 17.6367C15.2383 17.6367 16.8133 26.2555 16.8133 26.2555C17.0211 27.2617 17.4914 28 18.5633 28C19.7938 28 20.4445 27.1414 20.3133 26.2555C20.3024 26.1789 20.2859 26.1078 20.2695 26.0312L18.4922 16.4773L18.175 14.0164C17.9453 12.5836 18.1313 12.1078 18.1914 11.9984C18.1914 11.9984 18.1969 11.993 18.1969 11.9875C18.257 11.8781 18.525 11.632 19.1539 11.3969L24.0375 9.69062C24.0649 9.68515 24.0977 9.67421 24.125 9.66327C25 9.33515 25.875 8.88124 25.875 7.91874C25.875 6.95624 25.1641 5.89531 24.125 6.16874Z" fill="white"/>
</svg>
