<svg width="36" height="36" viewBox="0 0 36 36" fill="none" xmlns="http://www.w3.org/2000/svg">
<rect width="36" height="36" rx="18" fill="url(#paint0_linear_109_25158)"/>
<path fill-rule="evenodd" clip-rule="evenodd" d="M18.1836 7.23047C22.2265 7.23047 25.5001 10.504 25.5001 14.5469V23.9904H10.8672V14.5469C10.8672 10.504 14.1407 7.23047 18.1836 7.23047ZM15.2571 12.5858C14.4123 12.5858 13.7334 13.2646 13.7334 14.1094C13.7334 14.9542 14.4123 15.6331 15.2571 15.6331C16.1018 15.6331 16.7807 14.9542 16.7807 14.1094C16.7807 13.2646 16.1018 12.5858 15.2571 12.5858ZM20.6576 12.5858C19.8129 12.5858 19.134 13.2646 19.134 14.1094C19.134 14.9542 19.8129 15.6331 20.6576 15.6331C21.5024 15.6331 22.1813 14.9542 22.1813 14.1094C22.1813 13.2646 21.5024 12.5858 20.6576 12.5858Z" fill="white"/>
<path fill-rule="evenodd" clip-rule="evenodd" d="M18.1836 8.21094C22.2265 8.21094 25.5001 10.7302 25.5001 17.0812V24.5334H10.8672V14.4111C10.8672 10.5492 14.1407 8.21094 18.1836 8.21094ZM15.2571 12.5857C14.4123 12.5857 13.7334 13.2646 13.7334 14.1093C13.7334 14.9541 14.4123 15.633 15.2571 15.633C16.1018 15.633 16.7807 14.9541 16.7807 14.1093C16.7807 13.2646 16.1018 12.5857 15.2571 12.5857ZM20.6576 12.5857C19.8129 12.5857 19.134 13.2646 19.134 14.1093C19.134 14.9541 19.8129 15.633 20.6576 15.633C21.5024 15.633 22.1813 14.9541 22.1813 14.1093C22.1813 13.2646 21.5024 12.5857 20.6576 12.5857Z" fill="white"/>
<path fill-rule="evenodd" clip-rule="evenodd" d="M18.1837 8.91992C22.2266 8.91992 25.5001 11.3487 25.5001 17.4734V27.8069C25.5001 28.2745 25.123 28.6366 24.6704 28.6366C24.2028 28.6366 23.8407 28.2595 23.8407 27.8069V25.4837C23.8407 25.0613 23.4787 24.7295 23.0261 24.7144H23.011C22.5585 24.7144 22.1813 25.0463 22.1813 25.4687V26.5095C22.1813 26.947 21.8344 27.294 21.3969 27.294C20.9594 27.294 20.6124 26.947 20.6124 26.5095V25.4837C20.6124 25.0613 20.2504 24.7295 19.7978 24.7144H19.7827C19.3302 24.7144 18.953 25.0463 18.953 25.4687V25.6798C18.953 26.1173 18.6061 26.4643 18.1686 26.4643C17.7311 26.4643 17.3841 26.1173 17.3841 25.6798V25.4837C17.3841 25.0613 17.0221 24.7295 16.5695 24.7144H16.5544C16.1019 24.7144 15.7248 25.0463 15.7248 25.4687V26.5095C15.7248 26.947 15.3778 27.294 14.9403 27.294C14.5028 27.294 14.1559 26.947 14.1559 26.5095V25.4837C14.1559 25.0613 13.7938 24.7295 13.3412 24.7144H13.3262C12.8736 24.7144 12.4965 25.0463 12.4965 25.4687V25.4837V27.8521C12.4965 28.2896 12.1495 28.6366 11.712 28.6366C11.2745 28.6366 10.9276 28.2896 10.9276 27.8521V14.9088C10.8672 11.1827 14.1408 8.91992 18.1837 8.91992ZM15.2571 12.5857C14.4123 12.5857 13.7335 13.2645 13.7335 14.1093C13.7335 14.9541 14.4123 15.6329 15.2571 15.6329C16.1019 15.6329 16.7807 14.9541 16.7807 14.1093C16.7807 13.2645 16.1019 12.5857 15.2571 12.5857ZM20.6577 12.5857C19.8129 12.5857 19.1341 13.2645 19.1341 14.1093C19.1341 14.9541 19.8129 15.6329 20.6577 15.6329C21.5025 15.6329 22.1813 14.9541 22.1813 14.1093C22.1813 13.2645 21.5025 12.5857 20.6577 12.5857Z" fill="white"/>
<path opacity="0.2563" fill-rule="evenodd" clip-rule="evenodd" d="M11.651 16.2363C11.8622 16.2363 12.0432 16.4174 12.0432 16.6286V18.3935C12.0432 18.6047 11.8622 18.7858 11.651 18.7858C11.4398 18.7858 11.2588 18.6047 11.2588 18.3935V16.6286C11.2588 16.4174 11.4247 16.2363 11.651 16.2363Z" fill="white"/>
<path opacity="0.2563" fill-rule="evenodd" clip-rule="evenodd" d="M25.0026 18.7871C25.2138 18.7871 25.3948 18.9681 25.3948 19.1793V22.483C25.3948 22.6942 25.2138 22.8753 25.0026 22.8753C24.7914 22.8753 24.6104 22.6942 24.6104 22.483V19.1793C24.6104 18.9681 24.7914 18.7871 25.0026 18.7871Z" fill="white"/>
<path opacity="0.2563" fill-rule="evenodd" clip-rule="evenodd" d="M25.0026 17.082C25.2138 17.082 25.3948 17.2631 25.3948 17.4743V17.8363C25.3948 18.0475 25.2138 18.2285 25.0026 18.2285C24.7914 18.2285 24.6104 18.0475 24.6104 17.8363V17.4743C24.6104 17.248 24.7914 17.082 25.0026 17.082Z" fill="white"/>
<path fill-rule="evenodd" clip-rule="evenodd" d="M18.2133 18.0163C18.8771 18.0163 19.3749 17.4732 19.3749 17.0961C19.3749 16.9452 19.2844 16.8095 19.1486 16.7944C18.9374 16.7642 18.6206 16.8849 18.2133 16.8849C17.8362 16.8849 17.5948 16.7793 17.3082 16.7793C17.0065 16.7793 17.0216 17.1263 17.0668 17.262C17.1724 17.6392 17.5345 18.0163 18.2133 18.0163Z" fill="white"/>
<path fill-rule="evenodd" clip-rule="evenodd" d="M18.2284 17.7002C18.9073 17.7002 19.4051 17.2024 19.4051 16.8403C19.4051 16.7046 19.3146 16.5839 19.1788 16.5688C18.9676 16.5386 18.6357 16.6593 18.2284 16.6593C17.8362 16.6593 17.6099 16.5537 17.3082 16.5537C17.0065 16.5537 17.0216 16.8856 17.0668 17.0063C17.1724 17.3532 17.5496 17.7002 18.2284 17.7002Z" fill="white"/>
<path fill-rule="evenodd" clip-rule="evenodd" d="M15.483 12.3291C16.2524 12.3291 16.886 13.0985 16.886 14.0488C16.886 14.9992 16.2524 15.7686 15.483 15.7686C14.7137 15.7686 14.0801 14.9992 14.0801 14.0488C14.0801 13.0985 14.6986 12.3291 15.483 12.3291ZM15.483 12.5101C14.7891 12.5101 14.2309 13.2041 14.2309 14.0488C14.2309 14.8936 14.7891 15.5876 15.483 15.5876C16.177 15.5876 16.7351 14.8936 16.7351 14.0488C16.7351 13.2041 16.1619 12.5101 15.483 12.5101Z" fill="white"/>
<path fill-rule="evenodd" clip-rule="evenodd" d="M20.899 12.3291C21.6684 12.3291 22.302 13.0985 22.302 14.0488C22.302 14.9992 21.6684 15.7686 20.899 15.7686C20.1297 15.7686 19.4961 14.9992 19.4961 14.0488C19.4961 13.0985 20.1297 12.3291 20.899 12.3291ZM20.899 12.5101C20.2051 12.5101 19.6469 13.2041 19.6469 14.0488C19.6469 14.8936 20.2051 15.5876 20.899 15.5876C21.593 15.5876 22.1511 14.8936 22.1511 14.0488C22.1511 13.2041 21.593 12.5101 20.899 12.5101Z" fill="white"/>
<path fill-rule="evenodd" clip-rule="evenodd" d="M15.4835 12.5107C16.1775 12.5107 16.7356 13.2047 16.7356 14.0495C16.7356 14.0796 16.7356 14.1098 16.7356 14.14V14.2305C16.7356 13.3706 16.1926 12.6616 15.5137 12.6616C14.8349 12.6616 14.2918 13.3555 14.2918 14.2305C14.2918 14.3964 14.3069 14.5624 14.3521 14.7132C14.2767 14.5171 14.2314 14.2908 14.2314 14.0645C14.2314 13.2047 14.7896 12.5107 15.4835 12.5107Z" fill="white"/>
<path fill-rule="evenodd" clip-rule="evenodd" d="M20.8986 12.5107C21.5925 12.5107 22.1507 13.2047 22.1507 14.0495C22.1507 14.0796 22.1507 14.1098 22.1507 14.14V14.2305C22.1507 13.3706 21.6076 12.6616 20.9287 12.6616C20.2499 12.6616 19.7068 13.3555 19.7068 14.2305C19.7068 14.3964 19.7219 14.5624 19.7672 14.7132C19.6917 14.5171 19.6465 14.2908 19.6465 14.0645C19.6465 13.2047 20.2046 12.5107 20.8986 12.5107Z" fill="white"/>
<defs>
<linearGradient id="paint0_linear_109_25158" x1="36" y1="18" x2="0" y2="18" gradientUnits="userSpaceOnUse">
<stop stop-color="#DC349E"/>
<stop offset="0.4" stop-color="#9872B2"/>
<stop offset="1" stop-color="#31D0D0"/>
</linearGradient>
</defs>
</svg>
