<svg width="32" height="29" viewBox="0 0 32 29" fill="none" xmlns="http://www.w3.org/2000/svg">
<path d="M29.4157 0.434265L17.3972 9.18414L19.6321 4.02756L29.4157 0.434265Z" fill="#E17726" stroke="#E17726" stroke-width="0.310606" stroke-linecap="round" stroke-linejoin="round"/>
<path d="M1.69308 0.434265L13.6046 9.26581L11.4767 4.02755L1.69308 0.434265Z" fill="#E27625" stroke="#E27625" stroke-width="0.310606" stroke-linecap="round" stroke-linejoin="round"/>
<path d="M25.088 20.7222L21.8902 25.5288L28.7375 27.3838L30.6991 20.8272L25.088 20.7222Z" fill="#E27625" stroke="#E27625" stroke-width="0.310606" stroke-linecap="round" stroke-linejoin="round"/>
<path d="M0.421501 20.8272L2.37108 27.3838L9.20657 25.5288L6.02062 20.7222L0.421501 20.8272Z" fill="#E27625" stroke="#E27625" stroke-width="0.310606" stroke-linecap="round" stroke-linejoin="round"/>
<path d="M8.83801 12.6029L6.936 15.4262L13.712 15.7295L13.4862 8.55463L8.83801 12.6029Z" fill="#E27625" stroke="#E27625" stroke-width="0.310606" stroke-linecap="round" stroke-linejoin="round"/>
<path d="M22.2711 12.6029L17.5517 8.47302L17.3972 15.7296L24.1731 15.4263L22.2711 12.6029Z" fill="#E27625" stroke="#E27625" stroke-width="0.310606" stroke-linecap="round" stroke-linejoin="round"/>
<path d="M9.20664 25.5284L13.3079 23.5802L9.77728 20.8735L9.20664 25.5284Z" fill="#E27625" stroke="#E27625" stroke-width="0.310606" stroke-linecap="round" stroke-linejoin="round"/>
<path d="M17.8014 23.5802L21.8908 25.5284L21.332 20.8735L17.8014 23.5802Z" fill="#E27625" stroke="#E27625" stroke-width="0.310606" stroke-linecap="round" stroke-linejoin="round"/>
<path d="M21.8908 25.5296L17.8014 23.5814L18.1342 26.1946L18.0985 27.303L21.8908 25.5296Z" fill="#D5BFB2" stroke="#D5BFB2" stroke-width="0.310606" stroke-linecap="round" stroke-linejoin="round"/>
<path d="M9.20664 25.5296L13.0107 27.303L12.987 26.1946L13.3079 23.5814L9.20664 25.5296Z" fill="#D5BFB2" stroke="#D5BFB2" stroke-width="0.310606" stroke-linecap="round" stroke-linejoin="round"/>
<path d="M13.0816 19.1477L9.68167 18.1677L12.083 17.0827L13.0816 19.1477Z" fill="#233447" stroke="#233447" stroke-width="0.310606" stroke-linecap="round" stroke-linejoin="round"/>
<path d="M18.0271 19.1477L19.0257 17.0827L21.4389 18.1677L18.0271 19.1477Z" fill="#233447" stroke="#233447" stroke-width="0.310606" stroke-linecap="round" stroke-linejoin="round"/>
<path d="M9.20635 25.5288L9.80078 20.7222L6.02046 20.8272L9.20635 25.5288Z" fill="#CC6228" stroke="#CC6228" stroke-width="0.310606" stroke-linecap="round" stroke-linejoin="round"/>
<path d="M21.3079 20.7222L21.8905 25.5288L25.0883 20.8272L21.3079 20.7222Z" fill="#CC6228" stroke="#CC6228" stroke-width="0.310606" stroke-linecap="round" stroke-linejoin="round"/>
<path d="M24.1731 15.4257L17.3972 15.729L18.0272 19.1474L19.0258 17.0824L21.439 18.1674L24.1731 15.4257Z" fill="#CC6228" stroke="#CC6228" stroke-width="0.310606" stroke-linecap="round" stroke-linejoin="round"/>
<path d="M9.68207 18.1674L12.0834 17.0824L13.082 19.1474L13.712 15.729L6.936 15.4257L9.68207 18.1674Z" fill="#CC6228" stroke="#CC6228" stroke-width="0.310606" stroke-linecap="round" stroke-linejoin="round"/>
<path d="M6.936 15.4257L9.7772 20.874L9.68203 18.1674L6.936 15.4257Z" fill="#E27525" stroke="#E27525" stroke-width="0.310606" stroke-linecap="round" stroke-linejoin="round"/>
<path d="M21.4392 18.1674L21.3323 20.874L24.1734 15.4257L21.4392 18.1674Z" fill="#E27525" stroke="#E27525" stroke-width="0.310606" stroke-linecap="round" stroke-linejoin="round"/>
<path d="M13.7121 15.7292L13.0819 19.1476L13.8784 23.1841L14.0568 17.8642L13.7121 15.7292Z" fill="#E27525" stroke="#E27525" stroke-width="0.310606" stroke-linecap="round" stroke-linejoin="round"/>
<path d="M17.3972 15.7292L17.0643 17.8526L17.2307 23.1841L18.0272 19.1476L17.3972 15.7292Z" fill="#E27525" stroke="#E27525" stroke-width="0.310606" stroke-linecap="round" stroke-linejoin="round"/>
<path d="M18.027 19.1473L17.2305 23.1838L17.8012 23.5805L21.3318 20.8739L21.4388 18.1672L18.027 19.1473Z" fill="#F5841F" stroke="#F5841F" stroke-width="0.310606" stroke-linecap="round" stroke-linejoin="round"/>
<path d="M9.68167 18.1672L9.77684 20.8739L13.3074 23.5805L13.8781 23.1838L13.0816 19.1473L9.68167 18.1672Z" fill="#F5841F" stroke="#F5841F" stroke-width="0.310606" stroke-linecap="round" stroke-linejoin="round"/>
<path d="M18.0987 27.3026L18.1343 26.1943L17.8253 25.9376H13.2842L12.987 26.1943L13.0107 27.3026L9.20664 25.5293L10.5381 26.6026L13.2366 28.4343H17.8609L20.5713 26.6026L21.8908 25.5293L18.0987 27.3026Z" fill="#C0AC9D" stroke="#C0AC9D" stroke-width="0.310606" stroke-linecap="round" stroke-linejoin="round"/>
<path d="M17.8012 23.5804L17.2305 23.1838H13.8782L13.3077 23.5804L12.9867 26.1937L13.2839 25.937H17.825L18.1341 26.1937L17.8012 23.5804Z" fill="white" stroke="white" stroke-width="0.310606" stroke-linecap="round" stroke-linejoin="round"/>
<path d="M29.9268 9.75578L30.9374 4.92587L29.4157 0.434265L17.8014 8.89252L22.2711 12.6024L28.5835 14.4108L29.9744 12.8125L29.3682 12.3807L30.331 11.5175L29.594 10.9575L30.557 10.2341L29.9268 9.75578Z" fill="#763E1A" stroke="#763E1A" stroke-width="0.310606" stroke-linecap="round" stroke-linejoin="round"/>
<path d="M0.171738 4.92587L1.19408 9.75578L0.540262 10.2341L1.51505 10.9575L0.778014 11.5175L1.74092 12.3807L1.13464 12.8125L2.52551 14.4108L8.83795 12.6024L13.3077 8.89252L1.69337 0.434265L0.171738 4.92587Z" fill="#763E1A" stroke="#763E1A" stroke-width="0.310606" stroke-linecap="round" stroke-linejoin="round"/>
<path d="M28.5838 14.4109L22.2714 12.6026L24.1734 15.4259L21.3323 20.8741L25.0888 20.8275H30.6998L28.5838 14.4109Z" fill="#F5841F" stroke="#F5841F" stroke-width="0.310606" stroke-linecap="round" stroke-linejoin="round"/>
<path d="M8.83798 12.6026L2.52563 14.4109L0.421501 20.8275H6.02062L9.77711 20.8741L6.93598 15.4259L8.83798 12.6026Z" fill="#F5841F" stroke="#F5841F" stroke-width="0.310606" stroke-linecap="round" stroke-linejoin="round"/>
<path d="M17.397 15.7298L17.8012 8.89315L19.6319 4.02826H11.4769L13.3076 8.89315L13.7118 15.7298L13.8663 17.8764L13.8782 23.1847H17.2305L17.2424 17.8764L17.397 15.7298Z" fill="#F5841F" stroke="#F5841F" stroke-width="0.310606" stroke-linecap="round" stroke-linejoin="round"/>
</svg>
