<svg width="29" height="28" viewBox="0 0 29 28" fill="none" xmlns="http://www.w3.org/2000/svg">
<g clip-path="url(#clip0_0_1267)">
<path d="M13.656 11.902V23.5986H9.23967C7.88358 23.5986 6.78037 24.7019 6.78037 26.0579V26.3605H5.0838V28H23.8838V26.3605H22.1089V26.0579C22.1089 24.7019 21.0057 23.5986 19.6496 23.5986H15.2956V11.9148C15.0444 11.9432 14.7892 11.9583 14.5305 11.9583C14.2342 11.9584 13.9424 11.9391 13.656 11.902Z" fill="white"/>
<path d="M6.27768 7.13994V5.77368H4.63815V7.13994H3.2177V8.77947H4.21394L0.516243 16.5401V16.7255C0.516243 19.429 2.71572 21.6285 5.41931 21.6285C8.12284 21.6285 10.3223 19.429 10.3223 16.7255V16.5477L6.78644 8.77953H8.79287C8.47502 8.27383 8.2222 7.72346 8.04606 7.13999L6.27768 7.13994ZM2.35172 16.495L5.49559 9.90117L8.5447 16.495H2.35172Z" fill="white"/>
<path d="M24.9479 8.77951H25.7339V7.13997H24.4794V5.75562H22.8398V7.13997H21.0148C20.8387 7.72344 20.5858 8.27381 20.268 8.77951H22.3753L18.6776 16.5402V16.7255C18.6776 19.429 20.8771 21.6285 23.5807 21.6285C26.2842 21.6285 28.4837 19.429 28.4837 16.7255V16.5477L24.9479 8.77951ZM20.5406 16.5729L23.657 9.9012L26.6758 16.5657L20.5406 16.5729Z" fill="white"/>
<path d="M19.7166 5.18618C19.7166 2.32652 17.3901 0 14.5305 0C11.6708 0 9.34428 2.32652 9.34428 5.18618C9.34428 8.04584 11.6708 10.3724 14.5305 10.3724C17.3901 10.3724 19.7166 8.04584 19.7166 5.18618ZM15.0283 7.36832V8.04305H14.1712V7.39873C13.5634 7.36225 12.9738 7.19813 12.6091 6.9732L13.0711 5.92774C13.4723 6.16476 14.0071 6.31673 14.4752 6.31673C14.8824 6.31673 15.0283 6.23164 15.0283 6.08573C15.0283 5.55084 12.676 5.98243 12.676 4.39595C12.676 3.70913 13.1744 3.13168 14.1712 2.99184V2.32936H15.0283V2.97976C15.4781 3.0223 15.9157 3.1378 16.2622 3.33227L15.8307 4.37166C15.4112 4.15893 15.0161 4.05557 14.6454 4.05557C14.2259 4.05557 14.0923 4.17714 14.0923 4.32305C14.0923 4.83361 16.4446 4.40814 16.4446 5.97636C16.4446 6.63283 15.9704 7.2042 15.0283 7.36832Z" fill="white"/>
</g>
<defs>
<clipPath id="clip0_0_1267">
<rect width="28" height="28" fill="white" transform="translate(0.5)"/>
</clipPath>
</defs>
</svg>
