<svg width="120" height="32" viewBox="0 0 120 32" fill="none" xmlns="http://www.w3.org/2000/svg">
<path d="M33.234 19.7633C33.5177 19.8773 33.9381 19.9506 34.4953 19.9845V20.2226H28.2071V19.9845C28.7631 19.9506 29.1847 19.8773 29.4683 19.7633C29.752 19.6505 29.9486 19.4689 30.056 19.2184C30.1634 18.969 30.2176 18.6001 30.2176 18.1127V10.5239H30.1668L25.8552 20.4437H25.8044L21.1854 10.5589H21.1345V18.1127C21.1345 18.6001 21.191 18.969 21.3052 19.2184C21.4182 19.4677 21.6149 19.6494 21.8929 19.7633C22.1709 19.8773 22.5891 19.9506 23.1451 19.9845V20.2226H18.3476V19.9845C18.9036 19.9506 19.3218 19.8773 19.5998 19.7633C19.8778 19.6505 20.0744 19.4689 20.1875 19.2184C20.3005 18.969 20.3581 18.6001 20.3581 18.1127V10.507C20.3581 10.0196 20.3016 9.65066 20.1875 9.40131C20.0733 9.15196 19.8778 8.97031 19.5998 8.85636C19.3206 8.74353 18.9036 8.66906 18.3476 8.63522V8.39715H22.6512L26.5819 16.9641L30.3939 8.39715H34.4953V8.63522C33.9381 8.66906 33.5177 8.74353 33.234 8.85636C32.9504 8.97031 32.7514 9.15422 32.6373 9.40921C32.5232 9.6642 32.4666 10.0298 32.4666 10.507V18.1127C32.4666 18.6001 32.5232 18.969 32.6373 19.2184C32.7514 19.4689 32.9504 19.6494 33.234 19.7633ZM41.778 14.0295C42.1295 14.676 42.3058 15.4071 42.3058 16.224C42.3058 17.0408 42.1295 17.7719 41.778 18.4184C41.4254 19.0649 40.9349 19.5648 40.3043 19.9157C39.6737 20.2677 38.9549 20.4437 38.148 20.4437C37.341 20.4437 36.6256 20.2677 36.0007 19.9157C35.3757 19.5648 34.8841 19.0649 34.5269 18.4184C34.1687 17.7719 33.9901 17.0408 33.9901 16.224C33.9901 15.4071 34.1687 14.676 34.5269 14.0295C34.8852 13.383 35.3757 12.8843 36.0007 12.5323C36.6256 12.1802 37.341 12.0042 38.148 12.0042C38.9549 12.0042 39.6737 12.1802 40.3043 12.5323C40.9349 12.8843 41.4254 13.383 41.778 14.0295ZM40.0737 16.224C40.0737 15.4184 39.9969 14.7267 39.8432 14.1479C39.6895 13.5691 39.468 13.1302 39.1787 12.829C38.8893 12.5289 38.5446 12.3777 38.148 12.3777C37.7501 12.3777 37.4066 12.5277 37.1173 12.829C36.8279 13.1302 36.6064 13.5691 36.4527 14.1479C36.299 14.7267 36.2222 15.4184 36.2222 16.224C36.2222 17.0295 36.299 17.7212 36.4527 18.3C36.6064 18.8788 36.8279 19.3177 37.1173 19.6189C37.4066 19.9202 37.7501 20.0702 38.148 20.0702C38.5458 20.0702 38.8893 19.9202 39.1787 19.6189C39.468 19.3188 39.6895 18.8788 39.8432 18.3C39.9969 17.7212 40.0737 17.0295 40.0737 16.224ZM48.0843 13.8253C48.3793 13.8253 48.6471 13.876 48.8856 13.9787V12.1069C48.7375 12.0392 48.5624 12.0054 48.3578 12.0054C47.8346 12.0054 47.3723 12.2355 46.9688 12.6947C46.5654 13.1539 46.2512 13.682 45.9596 14.7335H45.9212V12.0731H45.8534L42.4787 13.0434V13.2645C42.8652 13.2645 43.1636 13.3017 43.3738 13.3751C43.584 13.4484 43.7343 13.568 43.8259 13.7327C43.9163 13.8975 43.9626 14.1209 43.9626 14.4052V18.6249C43.9626 18.9769 43.9287 19.2376 43.8609 19.4079C43.7931 19.5783 43.6677 19.7058 43.4857 19.7904C43.3037 19.875 43.0144 19.9405 42.6166 19.9856V20.2237H47.3542V19.9856C46.9564 19.9518 46.6581 19.892 46.4591 19.8073C46.2602 19.7227 46.1212 19.5918 46.0421 19.4158C45.963 19.2398 45.9223 18.9758 45.9223 18.6249V15.2807C46.2795 14.4424 47.066 13.8253 48.0843 13.8253ZM72.9535 19.3978C72.8857 19.2218 72.8518 18.9589 72.8518 18.6069V14.7267C72.8518 12.9046 71.8414 12.0042 70.5168 12.0042C69.1923 12.0042 68.3413 12.9407 67.9774 13.4394H67.9435V12.0731H67.8757L64.501 13.0434V13.2645C64.8762 13.2645 65.1712 13.3017 65.3871 13.3751C65.6029 13.4484 65.7566 13.5646 65.847 13.7237C65.9374 13.8828 65.9838 14.1039 65.9838 14.3871V18.6057C65.9838 18.9578 65.9499 19.2218 65.8821 19.3967C65.8143 19.5727 65.6888 19.7024 65.5069 19.7882C65.3249 19.8728 65.0356 19.9382 64.6378 19.9834V20.2214H69.0691V19.9834C68.7628 19.9382 68.5266 19.8728 68.3616 19.7882C68.1966 19.7035 68.0859 19.5727 68.0294 19.3967C67.9729 19.2206 67.9446 18.9578 67.9446 18.6057V14.0577C68.3368 13.5827 68.7979 13.1269 69.5472 13.1269C70.5768 13.1269 70.8932 13.902 70.8932 14.7775V18.6057C70.8932 18.9578 70.8615 19.2218 70.7994 19.3967C70.7372 19.5727 70.6287 19.7024 70.475 19.7882C70.3213 19.8728 70.0863 19.9382 69.7676 19.9834V20.2214H74.148V19.9834C73.7728 19.9382 73.4971 19.8728 73.3219 19.7882C73.1433 19.7035 73.0224 19.5738 72.9535 19.3978ZM116.016 17.8746C115.64 18.6949 114.59 20.4437 112.454 20.4437C110.425 20.4437 108.739 18.7874 108.739 16.2928C108.739 15.5098 108.909 14.7899 109.25 14.1321C109.591 13.4744 110.053 12.9554 110.639 12.5751C111.224 12.1949 111.868 12.0054 112.573 12.0054C114.62 12.0054 115.641 13.445 115.641 14.9456V15.2841H110.563C110.563 15.3146 110.562 15.3439 110.562 15.3744C110.562 17.1796 111.366 18.9138 113.391 18.9138C114.93 18.9138 115.574 18.063 115.827 17.7573L116.016 17.8746ZM110.598 14.7098H113.783C113.761 13.4766 113.393 12.4003 112.386 12.3957C111.441 12.3924 110.756 13.2724 110.598 14.7098ZM93.4116 19.3978C93.3438 19.2218 93.3099 18.9589 93.3099 18.6069V14.7267C93.3099 14.1367 93.2104 13.638 93.0115 13.2295C92.8126 12.8211 92.5369 12.5153 92.1854 12.3111C91.8328 12.1069 91.4293 12.0054 90.975 12.0054C90.4517 12.0054 89.9895 12.1385 89.586 12.4048C89.1826 12.671 88.7994 13.0547 88.4355 13.5533H88.4016V8H88.3338L84.9592 8.97031V9.19145C85.3344 9.19145 85.6293 9.22869 85.8452 9.30202C86.0611 9.37536 86.2148 9.49157 86.3052 9.65066C86.3956 9.80975 86.4419 10.0309 86.4419 10.3141V18.6057C86.4419 18.9578 86.408 19.2218 86.3402 19.3967C86.2724 19.5727 86.1469 19.7024 85.965 19.7882C85.783 19.8728 85.4937 19.9382 85.0959 19.9834V20.2214H89.5273V19.9834C89.221 19.9382 88.9848 19.8728 88.8198 19.7882C88.6548 19.7035 88.544 19.5727 88.4875 19.3967C88.431 19.2206 88.4027 18.9578 88.4027 18.6057V14.0577C88.7949 13.5827 89.256 13.1269 90.0053 13.1269C90.4257 13.1269 90.7546 13.2656 90.9942 13.5432C91.2327 13.8207 91.3525 14.2326 91.3525 14.7764V18.6057C91.3525 18.9578 91.3208 19.2218 91.2587 19.3967C91.1965 19.5727 91.088 19.7024 90.9343 19.7882C90.7806 19.8728 90.5455 19.9382 90.2268 19.9834V20.2214H94.6073V19.9834C94.2321 19.9382 93.9564 19.8728 93.7812 19.7882C93.6015 19.7035 93.4806 19.5738 93.4116 19.3978ZM81.033 19.488C78.5195 19.505 76.5259 17.4876 76.5259 14.2145C76.5259 10.7552 78.3828 8.73789 80.5063 8.73789C82.6299 8.73789 83.5408 10.6481 84.0053 12.5244L84.3455 12.5187V9.06622C83.5476 8.62506 82.2389 8.12749 80.3368 8.12749C76.6683 8.12749 73.8994 10.8071 73.8994 14.3849C73.8994 17.7934 76.2095 20.4888 80.1842 20.4719C82.3756 20.455 83.9036 19.1496 84.6337 18.1488L84.3963 17.8949C83.9036 18.4546 82.9181 19.4711 81.033 19.488ZM106.336 15.4928L105.161 14.931C104.38 14.5823 103.933 14.1209 103.933 13.5533C103.933 12.9102 104.523 12.4702 105.348 12.4702C106.55 12.4702 107.172 13.1336 107.43 14.6083H107.785V12.4646C107.432 12.328 106.501 12.0054 105.553 12.0054C103.678 12.0054 102.537 13.1821 102.537 14.5406C102.537 15.063 102.676 15.5188 102.954 15.9103C103.232 16.3018 103.65 16.6392 104.206 16.9224L105.433 17.535C106.273 17.9175 106.61 18.2943 106.61 18.8619C106.61 19.4892 106.103 19.98 105.144 19.98C103.741 19.98 103.074 18.652 102.891 17.5858H102.537V19.7803C103.071 20.1255 104.077 20.4437 105.008 20.4437C106.805 20.4437 108.058 19.3448 108.058 17.79C108.057 16.6696 107.458 15.969 106.336 15.4928ZM13.1748 15.0675V18.1127C13.1748 18.5888 13.2426 18.9544 13.3794 19.2105C13.5161 19.4655 13.7433 19.6505 14.0609 19.7633C14.3784 19.8773 14.8622 19.9506 15.5097 19.9845V20.2226H8.91412V19.9845C9.47016 19.9506 9.88832 19.8773 10.1663 19.7633C10.4444 19.6505 10.641 19.4689 10.754 19.2184C10.867 18.969 10.9247 18.6001 10.9247 18.1127V10.5589C10.9247 9.00303 10.2206 8.68712 9.15146 8.68712C7.97835 8.68712 7.2607 9.0019 7.2607 10.5081V18.96C7.2607 20.8702 6.01753 22.6867 3.56282 22.6867C3.37295 22.6867 3.18535 22.6754 3 22.654V22.4498C3.58316 22.4148 4.05557 22.2173 4.41496 21.8529C4.81278 21.4501 5.01168 20.7901 5.01168 19.8705V10.507C5.01168 10.0309 4.95518 9.6642 4.84103 9.40921C4.72688 9.15422 4.52798 8.97031 4.24431 8.85636C3.96064 8.74353 3.54587 8.66906 3 8.63522V8.39715H14.6463C17.2954 8.39715 18.9352 9.71948 18.9352 11.7154C18.9352 14.0001 16.6874 15.0675 14.6779 15.0675H13.1748ZM13.1748 14.6105H13.9874C15.3696 14.6105 16.5325 13.8027 16.5325 11.7323C16.5325 9.20161 14.8588 8.8541 14.0292 8.8541H13.1748V14.6105ZM63.8139 19.5433C64.0953 19.5433 64.3428 19.4204 64.4999 19.3143V19.7182C64.1857 20.0116 63.6025 20.4381 62.7255 20.4381C61.9864 20.4381 61.3659 19.9698 61.2009 19.2556H61.1569C60.8687 19.7995 59.9883 20.4866 59.0276 20.4866C57.8749 20.4866 57.0261 19.7193 57.0261 18.5527C57.0261 17.6411 57.6511 17.0341 58.6909 16.6662L61.1569 15.7794V14.6365C61.1569 13.5973 60.4042 13.1178 59.5882 13.1178C58.7553 13.1178 57.9868 13.4699 57.1866 14.2845L56.947 14.0611C57.6511 12.926 58.7722 11.9986 60.3895 11.9986C61.9265 11.9986 63.1595 13.0061 63.1437 14.6365L63.112 18.7129C63.1098 19.2872 63.3505 19.5433 63.8139 19.5433ZM61.1569 16.312L60.1646 16.7136C59.3961 17.0171 58.8999 17.3692 58.8999 18.1838C58.8999 18.8709 59.3803 19.3504 60.0527 19.3504C60.4053 19.3504 60.9173 19.0785 61.158 18.775V16.312H61.1569ZM101.438 19.5433C101.721 19.5433 101.967 19.4192 102.125 19.3143V19.7182C101.811 20.0116 101.228 20.4392 100.35 20.4392C99.6105 20.4392 98.9901 19.9709 98.8251 19.2568H98.781C98.4928 19.8006 97.6124 20.4877 96.6518 20.4877C95.499 20.4877 94.6503 19.7205 94.6503 18.5538C94.6503 17.6422 95.2753 17.0352 96.315 16.6674L98.781 15.7806V14.6365C98.781 13.5973 98.0283 13.1178 97.2123 13.1178C96.3794 13.1178 95.6109 13.4699 94.8108 14.2845L94.57 14.0611C95.2741 12.926 96.3952 11.9986 98.0125 11.9986C99.5495 11.9986 100.783 13.0061 100.767 14.6365L100.735 18.7129C100.734 19.2872 100.974 19.5433 101.438 19.5433ZM98.7799 16.312L97.7876 16.7136C97.0191 17.0171 96.5229 17.3692 96.5229 18.1838C96.5229 18.8709 97.0033 19.3504 97.6757 19.3504C98.0283 19.3504 98.5403 19.0785 98.781 18.775V16.312H98.7799ZM55.002 12.5639C55.731 13.1314 56.0531 13.9482 56.0531 14.6455C56.0531 16.4767 54.4855 17.4256 52.701 17.4256C52.2309 17.4256 51.7766 17.359 51.3618 17.2281C51.1312 17.4053 50.9334 17.6366 50.9334 17.9073C50.9334 18.4895 51.8839 18.6069 52.4513 18.6396L54.3861 18.7727C55.9367 18.8731 56.9199 19.4215 56.9199 20.8036C56.9199 22.5513 54.8495 24 51.8342 24C50.0836 24 48.8325 23.4009 48.8325 22.3347C48.8325 21.4084 49.3433 20.8781 50.6566 20.2485C49.7976 19.9992 49.5987 19.488 49.5987 18.9882C49.5987 18.3045 50.2101 17.6907 51.0386 17.1085C50.0463 16.6911 49.349 15.864 49.349 14.6433C49.349 12.8121 50.9165 11.8632 52.701 11.8632C53.5215 11.8632 54.1747 12.0494 54.6777 12.3416C55.0529 11.589 55.7931 10.7135 57.1199 10.7135V12.2761C56.4113 12.0573 55.5468 12.1712 55.002 12.5639ZM50.2327 21.6047C50.2327 22.5705 51.3335 23.0026 52.7677 23.0026C54.1352 23.0026 55.9853 22.3866 55.9853 21.4039C55.9853 20.8375 55.6688 20.7043 54.8348 20.6378L51.4838 20.3895C51.2872 20.3749 51.1098 20.3523 50.9504 20.3218C50.4678 20.6976 50.2327 21.0834 50.2327 21.6047ZM53.9849 14.6466C53.9849 13.0817 53.4684 12.3326 52.701 12.3326C51.9336 12.3326 51.4172 13.0817 51.4172 14.6466C51.4172 16.2116 51.9336 16.9607 52.701 16.9607C53.4684 16.9607 53.9849 16.2116 53.9849 14.6466Z" fill="white"/>
</svg>
