<svg width="114" height="15" viewBox="0 0 114 15" fill="none" xmlns="http://www.w3.org/2000/svg">
<path d="M95.6656 7.51625C94.8567 6.99126 93.9654 6.61797 93.1217 6.15132C92.5745 5.84799 91.9916 5.5796 91.5167 5.19461C90.7078 4.54131 90.8743 3.25804 91.7189 2.69802C92.9314 1.90472 94.94 2.34797 95.1541 3.96968C95.1541 4.00461 95.1898 4.02802 95.2255 4.02802H97.0565C97.1041 4.02802 97.1398 3.993 97.1279 3.94636C97.0327 2.82632 96.5926 1.89302 95.7846 1.29802C95.0114 0.726363 94.132 0.423035 93.1922 0.423035C88.3543 0.423035 87.9141 5.4513 90.5175 7.03798C90.8149 7.22463 93.3706 8.48458 94.2747 9.03289C95.1779 9.5812 95.4634 10.5846 95.0708 11.3779C94.714 12.1012 93.787 12.6029 92.86 12.5445C91.8489 12.4862 91.0647 11.9496 90.7911 11.1096C90.7435 10.9579 90.7197 10.6662 90.7197 10.5379C90.7197 10.5029 90.684 10.4679 90.6483 10.4679H88.6636C88.6279 10.4679 88.5922 10.5029 88.5922 10.5379C88.5922 11.9496 88.9491 12.7312 89.9236 13.4429C90.8387 14.1195 91.837 14.3995 92.8719 14.3995C95.5824 14.3995 96.9851 12.8945 97.2697 11.3312C97.5195 9.80287 97.0565 8.42623 95.6656 7.51625Z" fill="white"/>
<path d="M9.46743 0.679443H8.58777H7.62485C7.58917 0.679443 7.56537 0.702772 7.55348 0.726109L5.92494 5.99936C5.90115 6.06941 5.80607 6.06941 5.78228 5.99936L4.15365 0.726109C4.14175 0.691103 4.11796 0.679443 4.08227 0.679443H3.11944H2.2397H1.05094C1.01525 0.679443 0.979565 0.714441 0.979565 0.749437V14.2126C0.979565 14.2476 1.01525 14.2826 1.05094 14.2826H3.03617C3.07186 14.2826 3.10755 14.2476 3.10755 14.2126V3.98105C3.10755 3.89939 3.22641 3.88777 3.2502 3.95773L4.89064 9.26602L5.00951 9.6393C5.0214 9.67433 5.04519 9.68603 5.08088 9.68603H6.60254C6.63814 9.68603 6.66193 9.66262 6.67383 9.6393L6.79269 9.26602L8.43322 3.95773C8.45701 3.87607 8.57588 3.89939 8.57588 3.98105V14.2126C8.57588 14.2476 8.61157 14.2826 8.64716 14.2826H10.6325C10.6681 14.2826 10.7038 14.2476 10.7038 14.2126V0.749437C10.7038 0.714441 10.6681 0.679443 10.6325 0.679443H9.46743Z" fill="white"/>
<path d="M65.2682 0.679443C65.2326 0.679443 65.2088 0.702772 65.1969 0.726109L63.569 5.99936C63.5452 6.06941 63.45 6.06941 63.4262 5.99936L61.7974 0.726109C61.7855 0.691103 61.7617 0.679443 61.726 0.679443H58.7063C58.6706 0.679443 58.6349 0.714441 58.6349 0.749437V14.2126C58.6349 14.2476 58.6706 14.2826 58.7063 14.2826H60.692C60.7277 14.2826 60.7634 14.2476 60.7634 14.2126V3.98105C60.7634 3.89939 60.8823 3.88777 60.9061 3.95773L62.5459 9.26602L62.6649 9.6393C62.6768 9.67433 62.7006 9.68603 62.7363 9.68603H64.258C64.2937 9.68603 64.3175 9.66262 64.3294 9.6393L64.4483 9.26602L66.0891 3.95773C66.1128 3.87607 66.2318 3.89939 66.2318 3.98105V14.2126C66.2318 14.2476 66.2675 14.2826 66.3032 14.2826H68.288C68.3236 14.2826 68.3593 14.2476 68.3593 14.2126V0.749437C68.3593 0.714441 68.3236 0.679443 68.288 0.679443H65.2682Z" fill="white"/>
<path d="M39.662 0.679443H35.9649H33.9796H30.2826C30.2469 0.679443 30.2112 0.714441 30.2112 0.749437V2.42938C30.2112 2.46441 30.2469 2.49943 30.2826 2.49943H33.9083V14.2126C33.9083 14.2476 33.9439 14.2826 33.9796 14.2826H35.9649C36.0005 14.2826 36.0362 14.2476 36.0362 14.2126V2.49943H39.662C39.6977 2.49943 39.7333 2.46441 39.7333 2.42938V0.749437C39.7333 0.714441 39.7096 0.679443 39.662 0.679443Z" fill="white"/>
<path d="M51.3719 14.2822H53.1782C53.2258 14.2822 53.2615 14.2355 53.2496 14.1889L49.5171 0.67905C49.5052 0.644053 49.4814 0.632385 49.4457 0.632385H48.7564H47.5438H46.8543C46.8186 0.632385 46.7948 0.655722 46.7829 0.67905L43.0502 14.1889C43.0383 14.2355 43.074 14.2822 43.1216 14.2822H44.9285C44.9642 14.2822 44.9879 14.2589 44.9998 14.2355L46.0816 10.3039C46.0934 10.269 46.1172 10.2573 46.1529 10.2573H50.1475C50.1832 10.2573 50.207 10.2806 50.2189 10.3039L51.3005 14.2355C51.3124 14.2589 51.3481 14.2822 51.3719 14.2822ZM46.6284 8.3323L48.0788 3.07065C48.1025 3.00069 48.1976 3.00069 48.2214 3.07065L49.6717 8.3323C49.6836 8.37894 49.6479 8.42558 49.6003 8.42558H46.6998C46.6522 8.42558 46.6166 8.37894 46.6284 8.3323Z" fill="white"/>
<path d="M82.1848 14.2822H83.9911C84.0387 14.2822 84.0744 14.2355 84.0625 14.1889L80.3299 0.67905C80.318 0.644053 80.2943 0.632385 80.2586 0.632385H79.5695H78.3571H77.6671C77.6314 0.632385 77.6076 0.655722 77.5957 0.67905L73.8632 14.1889C73.8513 14.2355 73.887 14.2822 73.9346 14.2822H75.7418C75.7775 14.2822 75.8013 14.2589 75.8132 14.2355L76.8948 10.3039C76.9067 10.269 76.9305 10.2573 76.9662 10.2573H80.9604C80.9961 10.2573 81.0199 10.2806 81.0318 10.3039L82.1134 14.2355C82.1253 14.2589 82.1491 14.2822 82.1848 14.2822ZM77.4411 8.3323L78.8915 3.07065C78.9153 3.00069 79.0104 3.00069 79.0342 3.07065L80.4846 8.3323C80.4965 8.37894 80.4608 8.42558 80.4132 8.42558H77.5125C77.4649 8.42558 77.4292 8.37894 77.4411 8.3323Z" fill="white"/>
<path d="M18.7637 12.2869V8.1103C18.7637 8.07537 18.7994 8.04034 18.8351 8.04034H24.1251C24.1608 8.04034 24.1964 8.00532 24.1964 7.9703V6.29033C24.1964 6.2554 24.1608 6.22038 24.1251 6.22038H18.8351C18.7994 6.22038 18.7637 6.18535 18.7637 6.15033V2.58044C18.7637 2.54541 18.7994 2.51039 18.8351 2.51039H24.8503C24.8859 2.51039 24.9216 2.47537 24.9216 2.44043V0.760432C24.9216 0.725436 24.8859 0.69043 24.8503 0.69043H18.7637H16.7072C16.6715 0.69043 16.6358 0.725436 16.6358 0.760432V2.51039V6.23199V8.05205V12.3686V14.2119C16.6358 14.2469 16.6715 14.2819 16.7072 14.2819H18.7637H25.0999C25.1356 14.2819 25.1713 14.2469 25.1713 14.2119V12.4386C25.1713 12.4036 25.1356 12.3686 25.0999 12.3686H18.8232C18.7875 12.357 18.7637 12.3336 18.7637 12.2869Z" fill="white"/>
<path d="M113.806 14.1653L106.935 7.20032C106.911 7.177 106.911 7.13036 106.935 7.10704L113.117 0.807098C113.164 0.760432 113.129 0.69043 113.069 0.69043H110.537C110.513 0.69043 110.501 0.702098 110.49 0.713767L105.247 6.05705C105.2 6.10369 105.128 6.06867 105.128 6.01032V0.760432C105.128 0.725436 105.093 0.69043 105.057 0.69043H103.071C103.035 0.69043 103 0.725436 103 0.760432V14.2236C103 14.2586 103.035 14.2936 103.071 14.2936H105.057C105.093 14.2936 105.128 14.2586 105.128 14.2236V8.29704C105.128 8.23869 105.212 8.20367 105.247 8.25031L111.191 14.2702C111.202 14.2819 111.226 14.2936 111.238 14.2936H113.77C113.818 14.2819 113.853 14.2003 113.806 14.1653Z" fill="white"/>
</svg>
