<svg width="40" height="40" viewBox="0 0 40 40" fill="none" xmlns="http://www.w3.org/2000/svg">
<rect width="40" height="40" rx="20" fill="#1F57DB"/>
<g clip-path="url(#clip0_2087_3749)">
<path d="M10.1575 20.7031H8.70435C8.31571 20.7031 8.00122 21.0176 8.00122 21.4062V31.2969C8.00122 31.6855 8.31571 32 8.70435 32H10.1575C11.3206 32 12.2668 31.0538 12.2668 29.8906V22.8125C12.2668 21.6493 11.3206 20.7031 10.1575 20.7031Z" fill="white"/>
<path d="M20.0012 8C15.7365 8 12.2668 11.5165 12.2668 15.7812C12.2668 17.2356 12.6722 18.634 13.4178 19.8395C14.3623 19.3123 15.4117 19.0208 16.5007 19.0208C17.996 19.0208 19.5069 19.544 20.7888 20.7031H24.2668C24.7757 20.7031 25.2445 20.8542 25.6567 21.0914C26.9704 19.7046 27.7825 17.8378 27.7825 15.7812C27.7825 11.5165 24.266 8 20.0012 8ZM20.0013 13.6719C21.1644 13.6719 22.1106 14.6181 22.1106 15.7812C22.1106 16.6306 21.6053 17.3935 20.8232 17.7245C20.7843 17.741 20.7438 17.7474 20.7044 17.7613V18.5938C20.7044 18.9824 20.3899 19.2969 20.0013 19.2969C19.6126 19.2969 19.2981 18.9824 19.2981 18.5938V17.7633C18.9333 17.6405 18.5795 17.4344 18.262 17.1271C17.9833 16.8572 17.9764 16.4123 18.2469 16.1328C18.5168 15.854 18.9631 15.8479 19.2412 16.1177C19.5824 16.448 19.9594 16.5627 20.2746 16.4294C20.5355 16.3189 20.7044 16.0648 20.7044 15.7812C20.7044 15.3933 20.3893 15.0781 20.0013 15.0781C18.8382 15.0781 17.8919 14.1319 17.8919 12.9688C17.8918 12.085 18.4494 11.2885 19.2796 10.9864C19.2857 10.9842 19.292 10.9852 19.2981 10.9831V10.1094C19.2981 9.72073 19.6126 9.40625 20.0013 9.40625C20.3899 9.40625 20.7044 9.72073 20.7044 10.1094V10.9749C21.168 11.1312 21.6108 11.4409 21.9905 11.8935C22.2404 12.1908 22.202 12.6344 21.904 12.8836C21.6073 13.1343 21.1624 13.0958 20.9138 12.7971C20.5417 12.3549 20.1221 12.177 19.7609 12.3075C19.4842 12.4085 19.2981 12.6742 19.2981 12.9688C19.2981 13.3567 19.6133 13.6719 20.0013 13.6719Z" fill="white"/>
<path d="M31.4247 20.9703C30.8481 20.5484 30.0465 20.6328 29.5685 21.1531L25.7716 25.8781C25.5044 26.1593 24.9981 26.3281 24.731 26.3281H20.0012C19.6074 26.3281 19.2981 26.0188 19.2981 25.625C19.2981 25.2312 19.6074 24.9218 20.0012 24.9218C23.1512 24.9218 20.7653 24.9218 24.2668 24.9218C25.0403 24.9218 25.6731 24.289 25.6731 23.5156C25.6731 22.7422 25.0403 22.1093 24.2668 22.1093C20.9647 22.1093 24.0676 22.1093 20.5356 22.1093C20.1852 22.1093 20.0104 21.8871 19.734 21.6452C19.3122 21.2656 18.834 20.9843 18.3418 20.7874C16.818 20.1652 15.0572 20.3535 13.6731 21.316C13.6731 23.8763 13.6731 27.6912 13.6731 30.5937H24.2668C25.5887 30.5937 26.8544 29.914 27.6419 28.8593L31.72 22.9531C32.1841 22.3343 32.0575 21.4343 31.4247 20.9703Z" fill="white"/>
</g>
<defs>
<clipPath id="clip0_2087_3749">
<rect width="24" height="24" fill="white" transform="translate(8 8)"/>
</clipPath>
</defs>
</svg>
