<svg width="29" height="28" viewBox="0 0 29 28" fill="none" xmlns="http://www.w3.org/2000/svg">
<path d="M3.32231 19.3237H1.4894C1.24403 19.3237 1.04512 19.5226 1.04512 19.768V26.7236C1.04512 26.969 1.24403 27.1679 1.4894 27.1679H3.32231C3.56768 27.1679 3.76659 26.969 3.76659 26.7236V19.768C3.76659 19.5226 3.56768 19.3237 3.32231 19.3237Z" fill="white"/>
<path d="M27.8479 21.7496L27.1814 21.2684C27.0149 21.1496 26.8294 21.0602 26.6327 21.0041C26.4277 20.9457 26.2137 20.9251 26.0012 20.9431C26.3232 20.433 26.5826 19.9786 26.7264 19.6907C26.781 19.5854 26.8095 19.4684 26.8092 19.3497C26.8089 19.2311 26.78 19.1142 26.7248 19.0091C26.6997 18.9628 26.6704 18.9189 26.6373 18.8779C26.5582 18.7786 26.4601 18.696 26.3488 18.635C26.2374 18.574 26.115 18.5358 25.9887 18.5226C25.6828 18.4913 25.3768 18.5805 25.1356 18.7713L19.8692 23.3097C19.5422 23.3263 19.2144 23.3097 18.8907 23.2601C18.833 23.2533 12.8392 22.447 12.8392 22.447C12.767 22.4372 12.6975 22.4133 12.6345 22.3767C12.5715 22.34 12.5164 22.2913 12.4722 22.2334C12.4281 22.1754 12.3958 22.1093 12.3772 22.0389C12.3586 21.9684 12.354 21.895 12.3638 21.8228C12.3736 21.7506 12.3975 21.681 12.4341 21.618C12.4708 21.5551 12.5195 21.4999 12.5774 21.4558C12.6354 21.4116 12.7015 21.3793 12.7719 21.3607C12.8424 21.3421 12.9158 21.3376 12.988 21.3473L14.3289 21.5263C14.8661 21.5981 15.4126 21.5122 15.9019 21.2792C16.3912 21.0462 16.8023 20.6761 17.0852 20.2138C17.1103 20.1747 17.1249 20.1299 17.1276 20.0836C17.1303 20.0372 17.1211 19.991 17.1007 19.9493C17.0819 19.9074 17.0529 19.8709 17.0165 19.843C16.98 19.815 16.9372 19.7966 16.8918 19.7894L9.80912 18.6484C9.3805 18.5792 8.94113 18.6284 8.5384 18.7906L4.87718 20.2656V25.9238L12.5859 27.4988C13.2285 27.6324 13.8918 27.6317 14.5341 27.4966C18.6263 26.6035 22.9715 24.8664 27.8212 22.1849C27.8601 22.1653 27.893 22.1355 27.9164 22.0987C27.9399 22.062 27.953 22.0196 27.9544 21.976C27.9573 21.9323 27.9491 21.8886 27.9305 21.849C27.9118 21.8094 27.8834 21.7752 27.8479 21.7496Z" fill="white"/>
<path d="M10.0813 11.0099L12.7303 16.4174H13.8438V12.7312C13.471 12.5791 13.1626 12.3022 12.9714 11.9479C12.7803 11.5936 12.7181 11.1838 12.7956 10.7887C12.8731 10.3936 13.0855 10.0378 13.3964 9.78193C13.7073 9.52611 14.0974 9.38624 14.5 9.38624C14.9026 9.38624 15.2927 9.52611 15.6036 9.78193C15.9145 10.0378 16.1269 10.3936 16.2044 10.7887C16.2819 11.1838 16.2197 11.5936 16.0286 11.9479C15.8374 12.3022 15.529 12.5791 15.1563 12.7312V16.4172H16.2697L18.9166 11.0097C19.205 10.2879 19.3122 9.50635 19.2288 8.73352C19.1454 7.96069 18.8738 7.22007 18.4379 6.57646C18.002 5.93285 17.4151 5.40586 16.7284 5.04157C16.0417 4.67729 15.2762 4.48682 14.4989 4.48682C13.7216 4.48682 12.9561 4.67729 12.2694 5.04157C11.5827 5.40586 10.9958 5.93285 10.5599 6.57646C10.124 7.22007 9.85246 7.96069 9.76902 8.73352C9.68558 9.50635 9.79278 10.2881 10.0813 11.0099Z" fill="white"/>
<path d="M14.5 3.50171C14.6072 3.50171 14.7133 3.4806 14.8123 3.43958C14.9114 3.39857 15.0013 3.33845 15.0771 3.26266C15.1529 3.18688 15.213 3.0969 15.254 2.99788C15.295 2.89886 15.3162 2.79273 15.3162 2.68555V1.21752C15.3162 1.00107 15.2302 0.793473 15.0771 0.640414C14.9241 0.487355 14.7165 0.401367 14.5 0.401367C14.2835 0.401367 14.076 0.487355 13.9229 0.640414C13.7698 0.793473 13.6838 1.00107 13.6838 1.21752V2.68555C13.6838 2.79273 13.705 2.89886 13.746 2.99788C13.787 3.0969 13.8471 3.18688 13.9229 3.26266C14.076 3.41572 14.2835 3.50171 14.5 3.50171Z" fill="white"/>
<path d="M20.0829 5.33614L21.1211 4.29818C21.1985 4.22275 21.2601 4.13271 21.3024 4.03328C21.3447 3.93385 21.3669 3.82701 21.3676 3.71895C21.3683 3.6109 21.3475 3.50378 21.3065 3.40382C21.2654 3.30386 21.205 3.21304 21.1285 3.13663C21.0521 3.06022 20.9613 2.99975 20.8614 2.95872C20.7614 2.91768 20.6543 2.89691 20.5462 2.8976C20.4382 2.89829 20.3313 2.92043 20.2319 2.96274C20.1325 3.00504 20.0424 3.06667 19.967 3.14405L18.9288 4.18224C18.8514 4.25766 18.7898 4.3477 18.7475 4.44713C18.7052 4.54656 18.683 4.65341 18.6824 4.76146C18.6817 4.86952 18.7024 4.97663 18.7435 5.07659C18.7845 5.17656 18.845 5.26738 18.9214 5.34379C18.9978 5.42019 19.0886 5.48067 19.1886 5.5217C19.2885 5.56273 19.3957 5.58351 19.5037 5.58282C19.6118 5.58212 19.7186 5.55998 19.818 5.51768C19.9175 5.47537 20.0075 5.41374 20.0829 5.33636V5.33614Z" fill="white"/>
<path d="M8.91706 14.1938L7.87888 15.2319C7.8015 15.3074 7.73987 15.3974 7.69756 15.4968C7.65526 15.5963 7.63312 15.7031 7.63242 15.8112C7.63173 15.9192 7.65251 16.0263 7.69354 16.1263C7.73457 16.2263 7.79505 16.3171 7.87145 16.3935C7.94786 16.4699 8.03868 16.5304 8.13864 16.5714C8.23861 16.6124 8.34572 16.6332 8.45378 16.6325C8.56183 16.6318 8.66868 16.6097 8.76811 16.5674C8.86754 16.5251 8.95758 16.4634 9.033 16.3861L10.0712 15.3481C10.1486 15.2727 10.2102 15.1826 10.2525 15.0832C10.2948 14.9838 10.3169 14.8769 10.3176 14.7689C10.3183 14.6608 10.2976 14.5537 10.2565 14.4537C10.2155 14.3538 10.155 14.263 10.0786 14.1866C10.0022 14.1101 9.91138 14.0497 9.81142 14.0086C9.71146 13.9676 9.60434 13.9468 9.49629 13.9475C9.38823 13.9482 9.28139 13.9704 9.18196 14.0127C9.08253 14.055 8.99249 14.1164 8.91706 14.1938Z" fill="white"/>
<path d="M20.7633 9.76502C20.7633 9.8722 20.7844 9.97833 20.8254 10.0774C20.8664 10.1764 20.9265 10.2663 21.0023 10.3421C21.0781 10.4179 21.1681 10.478 21.2671 10.5191C21.3661 10.5601 21.4722 10.5812 21.5794 10.5812H23.0474C23.1557 10.583 23.2633 10.5632 23.3638 10.5229C23.4644 10.4827 23.556 10.4229 23.6332 10.3469C23.7104 10.271 23.7717 10.1804 23.8135 10.0805C23.8554 9.98066 23.877 9.87343 23.877 9.76513C23.877 9.65683 23.8554 9.54961 23.8135 9.44972C23.7717 9.34983 23.7104 9.25927 23.6332 9.18332C23.556 9.10736 23.4644 9.04754 23.3638 9.00732C23.2633 8.96711 23.1557 8.94731 23.0474 8.94908H21.5794C21.363 8.94908 21.1554 9.03504 21.0024 9.18805C20.8493 9.34106 20.7633 9.5486 20.7633 9.76502Z" fill="white"/>
<path d="M5.95256 10.5812H7.4206C7.52888 10.583 7.63644 10.5632 7.737 10.5229C7.83756 10.4827 7.92912 10.4229 8.00632 10.3469C8.08353 10.271 8.14485 10.1804 8.1867 10.0805C8.22856 9.98066 8.25011 9.87343 8.25011 9.76513C8.25011 9.65683 8.22856 9.54961 8.1867 9.44972C8.14485 9.34983 8.08353 9.25927 8.00632 9.18332C7.92912 9.10736 7.83756 9.04754 7.737 9.00732C7.63644 8.96711 7.52888 8.94731 7.4206 8.94908H5.95256C5.84428 8.94731 5.73672 8.96711 5.63616 9.00732C5.53559 9.04754 5.44404 9.10736 5.36684 9.18332C5.28963 9.25927 5.22831 9.34983 5.18646 9.44972C5.1446 9.54961 5.12305 9.65683 5.12305 9.76513C5.12305 9.87343 5.1446 9.98066 5.18646 10.0805C5.22831 10.1804 5.28963 10.271 5.36684 10.3469C5.44404 10.4229 5.53559 10.4827 5.63616 10.5229C5.73672 10.5632 5.84428 10.583 5.95256 10.5812Z" fill="white"/>
<path d="M18.9288 14.1938C18.7758 14.3469 18.6898 14.5544 18.6898 14.7709C18.6898 14.9873 18.7758 15.1949 18.9288 15.3479L19.967 16.3859C20.0424 16.4633 20.1325 16.5249 20.2319 16.5672C20.3313 16.6095 20.4382 16.6317 20.5462 16.6324C20.6543 16.6331 20.7614 16.6123 20.8614 16.5713C20.9613 16.5302 21.0521 16.4697 21.1285 16.3933C21.205 16.3169 21.2654 16.2261 21.3065 16.1261C21.3475 16.0262 21.3683 15.9191 21.3676 15.811C21.3669 15.703 21.3447 15.5961 21.3024 15.4967C21.2601 15.3973 21.1985 15.3072 21.1211 15.2318L20.0829 14.1936C19.9299 14.0406 19.7223 13.9547 19.5058 13.9547C19.2894 13.9548 19.0818 14.0408 18.9288 14.1938Z" fill="white"/>
<path d="M8.91706 5.33624C8.99249 5.41362 9.08253 5.47525 9.18196 5.51756C9.28139 5.55986 9.38823 5.582 9.49629 5.58269C9.60434 5.58338 9.71146 5.56261 9.81142 5.52158C9.91138 5.48055 10.0022 5.42007 10.0786 5.34366C10.155 5.26726 10.2155 5.17644 10.2565 5.07647C10.2976 4.97651 10.3183 4.86939 10.3176 4.76134C10.3169 4.65328 10.2948 4.54644 10.2525 4.44701C10.2102 4.34758 10.1486 4.25754 10.0712 4.18212L9.033 3.14393C8.95758 3.06655 8.86754 3.00492 8.76811 2.96262C8.66868 2.92031 8.56183 2.89817 8.45378 2.89748C8.34572 2.89679 8.23861 2.91756 8.13864 2.95859C8.03868 2.99963 7.94786 3.0601 7.87145 3.13651C7.79505 3.21292 7.73457 3.30374 7.69354 3.4037C7.65251 3.50366 7.63173 3.61078 7.63242 3.71883C7.63312 3.82689 7.65526 3.93373 7.69756 4.03316C7.73987 4.13259 7.8015 4.22263 7.87888 4.29805L8.91706 5.33624Z" fill="white"/>
</svg>
