<svg width="29" height="28" viewBox="0 0 29 28" fill="none" xmlns="http://www.w3.org/2000/svg">
<g clip-path="url(#clip0_0_1295)">
<path d="M26.876 19.0888C26.7019 18.439 26.2851 17.8958 25.7025 17.5595C25.5624 17.4786 25.4153 17.4117 25.2635 17.3594V10.6406C25.4153 10.5883 25.5623 10.5214 25.7024 10.4405C26.2851 10.1042 26.7019 9.56105 26.8759 8.9112C27.0501 8.2614 26.9607 7.58267 26.6243 7.00003C26.1758 6.22308 25.3394 5.74041 24.4416 5.74041C24.0014 5.74041 23.5665 5.85722 23.1838 6.07816C23.0425 6.1597 22.9111 6.25349 22.7904 6.35788L16.9726 2.99902C17.0028 2.84349 17.0186 2.68287 17.0186 2.51864C17.0186 1.12985 15.8888 0 14.5 0C13.1112 0 11.9813 1.12985 11.9813 2.51864C11.9813 2.68287 11.9972 2.84349 12.0273 2.99902L6.20955 6.35788C6.08886 6.25343 5.95739 6.1597 5.81613 6.07816C5.43343 5.85722 4.99855 5.74041 4.55837 5.74041C3.66056 5.74041 2.82417 6.22308 2.37556 7.00003C2.03918 7.58267 1.94982 8.26135 2.12394 8.9112C2.29807 9.561 2.71484 10.1042 3.29743 10.4405C3.43754 10.5214 3.58465 10.5883 3.73647 10.6406V17.3594C3.58465 17.4117 3.4376 17.4786 3.29749 17.5595C2.71484 17.8958 2.29807 18.4389 2.124 19.0888C1.94987 19.7386 2.03923 20.4173 2.37562 21C2.82417 21.7769 3.66056 22.2596 4.55837 22.2596C4.99855 22.2596 5.43343 22.1428 5.81613 21.9218C5.95739 21.8403 6.08886 21.7465 6.20955 21.6421L12.0273 25.001C11.9972 25.1565 11.9813 25.3171 11.9813 25.4814C11.9813 26.8702 13.1112 28 14.5 28C15.8888 28 17.0186 26.8702 17.0186 25.4814C17.0186 25.3171 17.0028 25.1565 16.9726 25.001L22.7904 21.6421C22.9111 21.7466 23.0426 21.8403 23.1839 21.9218C23.5666 22.1428 24.0014 22.2596 24.4416 22.2596C25.3394 22.2596 26.1758 21.7769 26.6244 21C26.9608 20.4174 27.0501 19.7387 26.876 19.0888ZM14.5 22.9628C13.869 22.9628 13.2913 23.1961 12.8489 23.581L7.02932 20.2211C7.14614 19.6245 7.04485 19.013 6.738 18.4814C6.43109 17.9498 5.94262 17.556 5.37715 17.3603V10.6398C5.94262 10.444 6.43109 10.0502 6.738 9.51867C7.04485 8.98716 7.14614 8.37564 7.02932 7.77905L12.8489 4.4191C13.2913 4.80399 13.8689 5.03729 14.5 5.03729C15.1311 5.03729 15.7086 4.80399 16.1511 4.4191L21.9707 7.779C21.8539 8.37559 21.9551 8.98711 22.262 9.51862C22.5689 10.0502 23.0574 10.444 23.6228 10.6397V17.3602C23.0574 17.556 22.5689 17.9498 22.262 18.4813C21.9551 19.0128 21.8539 19.6244 21.9707 20.2209L16.1511 23.5809C15.7086 23.1961 15.131 22.9628 14.5 22.9628Z" fill="white"/>
<path d="M8.27227 11.2528V17.6972L13.6797 20.8005V14.3561L8.27227 11.2528Z" fill="white"/>
<path d="M19.9074 9.832L14.5 6.72876L9.09259 9.832L14.5 12.9352L19.9074 9.832Z" fill="white"/>
<path d="M20.7277 11.2528L15.3203 14.3561V20.8005L20.7277 17.6972V11.2528Z" fill="white"/>
</g>
<defs>
<clipPath id="clip0_0_1295">
<rect width="28" height="28" fill="white" transform="translate(0.5)"/>
</clipPath>
</defs>
</svg>
