<svg width="160" height="48" viewBox="0 0 160 48" fill="none" xmlns="http://www.w3.org/2000/svg">
<path fill-rule="evenodd" clip-rule="evenodd" d="M19.5223 42.8011C20.004 42.5898 20.2449 42.1979 20.2449 41.7147C20.2449 40.8093 19.5524 40.3265 18.1375 40.2959H16V45.8487H18.4686C19.9438 45.8487 20.6663 45.3352 20.6663 44.2492C20.6663 43.5254 20.275 43.0425 19.5223 42.8011ZM17.3848 41.2922H18.1375C18.6192 41.2922 18.8604 41.5034 18.8604 41.9259C18.8604 42.2876 18.6192 42.4989 18.1375 42.4989H17.3848V41.2922ZM18.1977 44.823H17.3848V43.4952H18.1977C18.86 43.4952 19.1912 43.7064 19.1912 44.1893C19.1912 44.6717 18.8901 44.823 18.1977 44.823ZM118.087 42.8011C118.569 42.5898 118.81 42.1979 118.81 41.7147C118.81 40.8093 118.118 40.3265 116.702 40.2959H114.565V45.8487H117.034C118.509 45.8487 119.232 45.3352 119.232 44.2492C119.231 43.5254 118.87 43.0425 118.087 42.8011ZM115.95 41.2922H116.702C117.184 41.2922 117.425 41.5034 117.425 41.9259C117.425 42.2876 117.184 42.4989 116.702 42.4989H115.95V41.2922ZM116.763 44.823H115.95V43.4952H116.763C117.425 43.4952 117.757 43.7064 117.757 44.1893C117.757 44.6717 117.455 44.823 116.763 44.823ZM101.529 40.8697C101.017 40.4765 100.476 40.3562 99.8739 40.2959H97.164V45.8487H99.8739C100.385 45.8185 100.837 45.7284 101.319 45.4262C102.162 44.8834 102.613 44.0682 102.613 43.0727C102.613 42.1674 102.222 41.4125 101.529 40.8697ZM99.8739 44.7019C99.7832 44.7321 99.6623 44.7321 99.5724 44.7321H98.5484V41.4125H99.5724C99.6623 41.4125 99.7832 41.4125 99.8739 41.4427C100.656 41.5629 101.168 42.1975 101.168 43.0727C101.168 43.9479 100.656 44.5816 99.8739 44.7019ZM79.6728 43.2538C80.3351 42.9516 80.6366 42.5291 80.6366 41.8957C80.6366 40.8093 79.9442 40.2963 78.5288 40.2963H76.4214V45.8491H77.8063V43.5857H77.9568C78.1977 43.5857 78.3783 43.6159 78.5288 43.6767C78.7094 43.797 78.86 43.9789 78.9804 44.2497L79.6427 45.8491H81.2086L80.3356 43.9483C80.185 43.5853 79.9442 43.3439 79.6728 43.2538ZM78.5288 42.5597H77.8063V41.2926H78.5288C78.9804 41.2926 79.2212 41.534 79.2212 41.9263C79.2212 42.3484 79.0105 42.5597 78.5288 42.5597ZM123.446 43.2538C124.108 42.9516 124.41 42.5291 124.41 41.8957C124.41 40.8093 123.687 40.2963 122.241 40.2963H120.165V45.8491H121.549V43.5857H121.7C121.941 43.5857 122.121 43.6159 122.241 43.6767C122.453 43.797 122.573 43.9789 122.693 44.2497L123.416 45.8491H124.981L124.108 43.9483C123.928 43.5853 123.717 43.3439 123.446 43.2538ZM122.241 42.5597H121.549V41.2926H122.241C122.723 41.2926 122.964 41.534 122.964 41.9263C122.964 42.3484 122.754 42.5597 122.241 42.5597ZM24.3091 40.2959H23.5866L21.148 45.8487H22.6533L23.0748 44.7623H25.4832L25.8746 45.8487H27.3497L25.1821 40.2959H24.3091ZM24.3091 43.8267H23.4962L24.3091 41.8048L24.3392 41.7147L25.1219 43.8267H24.3091ZM84.7305 40.2959H84.0076L81.5991 45.8487H83.0747L83.5255 44.7623H85.9038L86.296 45.8487H87.7707L85.6031 40.2959H84.7305ZM84.7305 43.8267H83.9173L84.7305 41.8048L84.7911 41.7147L85.5735 43.8267H84.7305ZM128.473 40.2959H127.75L125.312 45.8487H126.787L127.239 44.7623H129.617L130.038 45.8487H131.513L129.345 40.2959H128.473ZM128.473 43.8267H127.63L128.473 41.8048L128.503 41.7147L129.286 43.8267H128.473ZM32.4074 43.6155L29.427 40.2959H28.2228V45.8487H29.6076V42.3484L32.7085 45.8487H33.7923V40.2959H32.4074V43.6155ZM137.204 45.8487H138.649V40.2959H137.204V45.8487ZM67.6608 43.6155L64.6803 40.2959H63.4761V45.8487H64.8309V42.3484L67.9317 45.8487H69.0155V40.2959H67.6608V43.6155ZM70.2799 41.3224H72.1164V45.8487H73.5614V41.3224H75.3979V40.2959H70.2799V41.3224ZM90.119 40.2959H88.7345V45.8487H92.4977V44.7929H90.119V40.2959ZM141.329 44.7929V40.2959H139.944V45.8487H143.707V44.7929H141.329ZM59.6528 43.4952H61.8505V42.439H59.6528V41.3224H61.9709V40.2959H58.2378V45.8487H62.0311V44.823H59.6528V43.4952ZM44.2091 40.2355C43.3361 40.2355 42.6135 40.4769 42.0716 41.0206C41.4996 41.5634 41.1986 42.2575 41.1986 43.1033C41.1986 43.9177 41.4996 44.6424 42.0716 45.1852C42.6135 45.6986 43.3361 45.9702 44.2091 45.9702C45.0818 45.9702 45.8043 45.6986 46.3462 45.1852C46.9182 44.6424 47.2192 43.9181 47.2192 43.1033C47.2192 42.2575 46.9182 41.5634 46.3462 41.0206C45.8043 40.4769 45.0818 40.2355 44.2091 40.2355ZM44.2091 44.7929C43.2759 44.7929 42.6135 44.0988 42.6135 43.1033C42.6135 42.107 43.2759 41.3827 44.2091 41.3827C45.1123 41.3827 45.7746 42.1074 45.7746 43.1033C45.7742 44.0983 45.1119 44.7929 44.2091 44.7929ZM106.376 40.2058C105.503 40.2058 104.781 40.4765 104.239 40.99C103.667 41.5336 103.366 42.257 103.366 43.0727C103.366 43.8871 103.667 44.6118 104.239 45.1546C104.781 45.668 105.503 45.9396 106.376 45.9396C107.249 45.9396 107.972 45.668 108.513 45.1546C109.086 44.6118 109.387 43.9177 109.387 43.0727C109.387 42.2575 109.086 41.5336 108.513 40.99C107.972 40.4769 107.249 40.2058 106.376 40.2058ZM106.376 44.7929C105.443 44.7929 104.781 44.0682 104.781 43.0727C104.781 42.0764 105.443 41.3823 106.376 41.3823C107.279 41.3823 107.972 42.0764 107.972 43.0727C107.972 44.0682 107.279 44.7929 106.376 44.7929ZM36.4716 43.1029C36.4716 42.0156 37.1641 41.3823 38.278 41.3823C38.8801 41.3823 39.5123 41.5634 40.1144 41.9863V40.6584C39.5171 40.3564 38.8566 40.2012 38.1876 40.2058C36.2609 40.2058 35.0567 41.4125 35.0567 43.1029C35.0567 43.9173 35.3577 44.6713 35.8996 45.1848C36.4415 45.6982 37.1641 45.9698 38.0672 45.9698C38.8199 45.9698 39.5123 45.7879 40.1746 45.396V44.0983C39.5123 44.5812 38.85 44.7924 38.1575 44.7924C37.134 44.7929 36.4716 44.1289 36.4716 43.1029ZM53.3607 43.1029C53.3607 42.0156 54.0532 41.3823 55.1671 41.3823C55.7993 41.3823 56.4014 41.5634 57.0336 41.9863V40.6584C56.4014 40.3562 55.7692 40.2058 55.0767 40.2058C53.15 40.2058 51.9458 41.4125 51.9458 43.1029C51.9458 43.9173 52.2468 44.6713 52.7887 45.1848C53.3306 45.6982 54.0532 45.9698 54.9563 45.9698C55.7391 45.9698 56.4014 45.7879 57.0637 45.396V44.0983C56.4014 44.5812 55.7391 44.7924 55.0767 44.7924C54.0231 44.7929 53.3607 44.1289 53.3607 43.1029ZM135.398 42.9516C134.976 42.68 134.495 42.5291 134.013 42.3484C133.501 42.1674 133.261 41.9561 133.261 41.7453C133.261 41.4431 133.531 41.2926 134.073 41.2926C134.585 41.2926 135.187 41.4737 135.879 41.8354V40.6886C135.247 40.3873 134.615 40.2359 134.013 40.2359C132.718 40.2359 131.906 40.93 131.906 41.8354C131.906 42.8619 132.598 43.3145 133.982 43.797C134.464 43.9789 134.736 44.0992 134.736 44.4316C134.736 44.7329 134.434 44.9136 133.893 44.9136C133.26 44.9136 132.688 44.6428 131.995 44.2203V45.4572C132.598 45.8189 133.23 46 133.923 46C135.337 46 136.12 45.3361 136.12 44.3406C136.12 43.7064 135.88 43.2538 135.398 42.9516ZM73.6216 36.6447H83.6467L85.5434 34.7431H75.4882V29.07H77.3848L79.2814 27.1687H71.725V19.6543L69.8585 21.5556V23.4266H64.1987V13.3471L62.302 15.2181V25.2977H67.9618V30.9406H73.6216V36.6447ZM69.8585 15.2181H77.3848L79.2814 13.3471H71.725V5.77229L67.9618 9.57476V13.3471H69.8585V15.2181ZM83.6467 29.07V21.5254L85.5434 19.6543V27.1687H93.0998L89.3065 30.9406H85.5434V29.07H83.6467ZM73.6216 5.77229H75.4882V2L73.6216 3.90123V5.77229ZM93.0998 25.3278V23.4266H96.863L94.9668 25.3278H93.0998ZM83.6467 15.2181V7.67353L85.5434 5.77229V13.3471H93.0697L91.2036 15.2181H83.6467Z" fill="white"/>
</svg>
