<svg width="80" height="32" viewBox="0 0 80 32" fill="none" xmlns="http://www.w3.org/2000/svg">
<g clip-path="url(#clip0_33_13089)">
<path fill-rule="evenodd" clip-rule="evenodd" d="M6.59855 22.313C5.93909 20.9108 5.57074 19.3463 5.57074 17.6964C5.57074 11.6647 10.4935 6.77505 16.566 6.77505C19.9472 6.77505 22.9719 8.29116 24.9889 10.6762L26.1921 9.67334C23.8871 6.94755 20.4303 5.21484 16.566 5.21484C9.62598 5.21484 4 10.803 4 17.6964C4 19.582 4.42096 21.37 5.17464 22.9726L6.59855 22.313Z" fill="white"/>
<path fill-rule="evenodd" clip-rule="evenodd" d="M16.566 25.1076C12.4454 25.1076 9.10494 21.7896 9.10494 17.6967C9.10494 13.6038 12.4454 10.2858 16.566 10.2858C18.8604 10.2858 20.9126 11.3148 22.2812 12.9333L23.4848 11.9301C21.828 9.97098 19.3434 8.72559 16.566 8.72559C11.5778 8.72559 7.53418 12.7421 7.53418 17.6967C7.53418 22.6513 11.5778 26.6678 16.566 26.6678V25.1076Z" fill="white"/>
<path fill-rule="evenodd" clip-rule="evenodd" d="M19.2731 19.9524C18.6249 20.7191 17.6528 21.2065 16.5659 21.2065C14.614 21.2065 13.0317 19.6348 13.0317 17.6961C13.0317 15.7573 14.614 14.1856 16.5659 14.1856C17.6528 14.1856 18.6249 14.6731 19.2731 15.4397L20.6267 14.3115C19.6543 13.1616 18.1962 12.4304 16.5659 12.4304C13.6381 12.4304 11.2646 14.7879 11.2646 17.6961C11.2646 20.6042 13.6381 22.9617 16.5659 22.9617C18.06 22.9617 19.4092 22.3473 20.3727 21.3596L19.2731 19.9524Z" fill="white"/>
<path fill-rule="evenodd" clip-rule="evenodd" d="M23.1563 17.5143C23.5105 17.2096 23.9425 17.0569 24.4525 17.0569C24.7264 17.0569 24.9647 17.1016 25.168 17.1907C25.3709 17.28 25.5385 17.3995 25.6708 17.5495C25.803 17.6997 25.8997 17.8731 25.9613 18.0701C26.0226 18.2671 26.0534 18.4736 26.0534 18.6892H22.5684C22.606 18.2109 22.8022 17.8192 23.1563 17.5143ZM26.3084 20.6875C26.1193 20.9596 25.8785 21.1729 25.5859 21.3276C25.293 21.4825 24.9342 21.5599 24.5092 21.5599C24.2635 21.5599 24.0275 21.5177 23.8009 21.4332C23.5742 21.3488 23.371 21.234 23.1917 21.0884C23.0122 20.9431 22.8681 20.7696 22.7596 20.5678C22.651 20.3662 22.5872 20.1435 22.5684 19.8994H27.7392C27.7485 19.8245 27.7534 19.7495 27.7534 19.6743V19.4492C27.7534 18.8395 27.6706 18.3071 27.5054 17.852C27.3401 17.3971 27.111 17.0172 26.8184 16.7122C26.5256 16.4075 26.1784 16.1775 25.7771 16.0227C25.3756 15.8679 24.9388 15.7905 24.4667 15.7905C23.9567 15.7905 23.4821 15.8774 23.043 16.0509C22.6038 16.2246 22.2236 16.4684 21.9025 16.7826C21.5814 17.097 21.3288 17.4769 21.1447 17.9223C20.9604 18.368 20.8684 18.863 20.8684 19.4069C20.8684 19.9605 20.9604 20.4552 21.1447 20.8914C21.3288 21.3276 21.5838 21.6959 21.9096 21.9961C22.2354 22.2964 22.6202 22.5286 23.0642 22.6926C23.5081 22.8566 23.9944 22.9389 24.5233 22.9389C25.665 22.9389 26.5641 22.5776 27.2211 21.8555L26.3084 20.6875Z" fill="white"/>
<path fill-rule="evenodd" clip-rule="evenodd" d="M28.8291 15.9876H30.4441V17.071H30.4724C30.6234 16.7333 30.8855 16.4356 31.2586 16.1775C31.6316 15.9196 32.0733 15.7905 32.5832 15.7905C33.0271 15.7905 33.4071 15.8679 33.7236 16.0228C34.04 16.1775 34.2996 16.3816 34.5027 16.6348C34.7058 16.8882 34.8546 17.179 34.949 17.5073C35.0433 17.8357 35.0907 18.1734 35.0907 18.5204V22.7418H33.3907V18.9989C33.3907 18.8019 33.3766 18.5956 33.3482 18.3797C33.3199 18.1641 33.2584 17.9694 33.1641 17.7958C33.0695 17.6223 32.9396 17.4791 32.7744 17.3666C32.6091 17.254 32.3895 17.1977 32.1157 17.1977C31.8417 17.1977 31.6057 17.2518 31.4074 17.3595C31.2091 17.4675 31.0461 17.6058 30.9187 17.7747C30.7912 17.9435 30.6942 18.1383 30.6282 18.3586C30.5621 18.5791 30.5291 18.8019 30.5291 19.027V22.7418H28.8291V15.9876Z" fill="white"/>
<path fill-rule="evenodd" clip-rule="evenodd" d="M35.813 17.3381V15.9872H37.003V14.0312H38.6746V15.9872H40.3746V17.3381H38.6746V20.476C38.6746 20.7763 38.7289 21.0248 38.8376 21.2218C38.946 21.4188 39.1893 21.5173 39.5671 21.5173C39.6805 21.5173 39.8031 21.5056 39.9355 21.4821C40.0676 21.4588 40.1856 21.4236 40.2897 21.3765L40.3463 22.6992C40.1951 22.7556 40.0156 22.8 39.808 22.833C39.6001 22.8657 39.4018 22.8822 39.213 22.8822C38.7596 22.8822 38.3913 22.8189 38.108 22.6922C37.8246 22.5656 37.6002 22.3921 37.4351 22.1716C37.2698 21.9514 37.1564 21.698 37.0951 21.4117C37.0335 21.1257 37.003 20.8185 37.003 20.49V17.3381H35.813Z" fill="white"/>
<path fill-rule="evenodd" clip-rule="evenodd" d="M41.3948 15.9876H43.0239V17.1133H43.0523C43.241 16.7192 43.5056 16.4005 43.8456 16.1564C44.1855 15.9126 44.5822 15.7905 45.0356 15.7905C45.1015 15.7905 45.1723 15.7929 45.2481 15.7975C45.3236 15.8024 45.3897 15.8141 45.4464 15.8327V17.3807C45.333 17.3525 45.2361 17.3338 45.156 17.3244C45.0756 17.3151 44.9977 17.3103 44.9222 17.3103C44.5349 17.3103 44.2231 17.3807 43.9873 17.5213C43.751 17.662 43.5669 17.8309 43.4348 18.0279C43.3023 18.225 43.2128 18.4268 43.1656 18.633C43.1182 18.8395 43.0947 19.0036 43.0947 19.1255V22.7418H41.3948V15.9876Z" fill="white"/>
<path fill-rule="evenodd" clip-rule="evenodd" d="M46.2252 22.7419H47.9252V15.9877H46.2252V22.7419ZM45.9844 13.694C45.9844 13.422 46.0857 13.1852 46.2889 12.9834C46.4919 12.7817 46.7493 12.6809 47.0611 12.6809C47.3727 12.6809 47.6347 12.7771 47.8472 12.9694C48.0598 13.1617 48.166 13.4033 48.166 13.694C48.166 13.9848 48.0598 14.2266 47.8472 14.4186C47.6347 14.6111 47.3727 14.7072 47.0611 14.7072C46.7493 14.7072 46.4919 14.6065 46.2889 14.4046C46.0857 14.203 45.9844 13.9662 45.9844 13.694Z" fill="white"/>
<path fill-rule="evenodd" clip-rule="evenodd" d="M50.1214 17.3382H48.8323V15.9874H50.1214V15.4823C50.1214 15.079 50.1662 14.6921 50.256 14.3214C50.3457 13.9509 50.4968 13.6248 50.7094 13.3434C50.9219 13.062 51.2028 12.8392 51.5523 12.675C51.9015 12.511 52.3407 12.4287 52.8698 12.4287C53.0585 12.4287 53.2169 12.4358 53.3444 12.4498C53.4718 12.4639 53.6016 12.4899 53.734 12.5272L53.6206 13.9625C53.5261 13.9344 53.4245 13.9111 53.316 13.8922C53.2073 13.8735 53.0915 13.8641 52.9689 13.8641C52.7232 13.8641 52.5249 13.9111 52.374 14.0048C52.2227 14.0986 52.107 14.2207 52.0269 14.3706C51.9465 14.5208 51.8923 14.685 51.8639 14.8632C51.8356 15.0414 51.8214 15.2149 51.8214 15.3837V15.9874H53.3939V17.3382H51.8214V22.7416H50.1214V17.3382Z" fill="white"/>
<path fill-rule="evenodd" clip-rule="evenodd" d="M60.5055 22.7418H58.8906V21.6584H58.8624C58.7115 21.9961 58.4491 22.294 58.0761 22.5518C57.7032 22.8097 57.2616 22.9389 56.7514 22.9389C56.3076 22.9389 55.9275 22.8614 55.6112 22.7066C55.2947 22.5518 55.035 22.3478 54.832 22.0946C54.6288 21.8412 54.4801 21.5506 54.3858 21.2221C54.2913 20.8938 54.2441 20.5561 54.2441 20.209V15.9875H55.9442V19.7305C55.9442 19.9275 55.9583 20.134 55.9866 20.3497C56.015 20.5656 56.0763 20.7602 56.1708 20.9336C56.2651 21.1074 56.3952 21.2502 56.5602 21.3628C56.7252 21.4754 56.9452 21.5317 57.2192 21.5317C57.4832 21.5317 57.7173 21.4778 57.9206 21.3698C58.1233 21.2621 58.2888 21.1237 58.4161 20.9547C58.5439 20.7859 58.6403 20.5913 58.7068 20.3708C58.7728 20.1505 58.8058 19.9275 58.8058 19.7024V15.9875H60.5055V22.7418Z" fill="white"/>
<path fill-rule="evenodd" clip-rule="evenodd" d="M67.0637 20.122C66.9694 20.3792 66.8348 20.6059 66.6598 20.8022C66.4849 20.9985 66.2727 21.1551 66.0223 21.272C65.772 21.389 65.4912 21.4473 65.1795 21.4473C64.8773 21.4473 64.606 21.3866 64.365 21.265C64.1241 21.1434 63.9208 20.9821 63.7558 20.7811C63.5903 20.5801 63.463 20.3532 63.3734 20.1008C63.2833 19.8484 63.2388 19.5868 63.2388 19.3155C63.2388 19.0165 63.2833 18.7359 63.3734 18.474C63.463 18.2122 63.5903 17.9854 63.7558 17.7938C63.9208 17.602 64.1241 17.4501 64.365 17.3379C64.606 17.2258 64.882 17.1696 65.1937 17.1696C65.5053 17.1696 65.784 17.2258 66.0297 17.3379C66.2753 17.4501 66.4849 17.6044 66.6598 17.8008C66.8348 17.9972 66.9694 18.2262 67.0637 18.4878C67.158 18.7497 67.2056 19.0257 67.2056 19.3155C67.2056 19.596 67.158 19.8649 67.0637 20.122ZM67.2056 15.9876V17.0006H67.1768C66.9312 16.588 66.6012 16.283 66.1853 16.0861C65.7699 15.8891 65.3215 15.7905 64.8396 15.7905C64.3294 15.7905 63.869 15.8844 63.4583 16.072C63.0476 16.2598 62.6983 16.513 62.4102 16.8319C62.1221 17.1509 61.9 17.5262 61.7444 17.9575C61.5883 18.3891 61.5103 18.8489 61.5103 19.3366C61.5103 19.815 61.5904 20.2677 61.7512 20.6944C61.912 21.1214 62.1362 21.4943 62.4243 21.8131C62.7124 22.1321 63.0639 22.3854 63.4798 22.573C63.8952 22.7605 64.3577 22.8544 64.8679 22.8544C65.3404 22.8544 65.7678 22.7667 66.1502 22.5915C66.5325 22.4162 66.8463 22.1627 67.092 21.8309H67.1203V22.3252C67.1203 22.6643 67.0852 22.9749 67.0144 23.2574C66.9432 23.5397 66.8253 23.7846 66.6598 23.9918C66.4948 24.1989 66.2727 24.3612 65.9941 24.479C65.7154 24.5966 65.3733 24.6556 64.9674 24.6556C64.5421 24.6556 64.122 24.5733 63.7061 24.4093C63.3017 24.2494 62.9371 24.0205 62.6134 23.7228L61.6098 25.0074C61.8266 25.1855 62.0723 25.3451 62.3463 25.4858C62.6202 25.6265 62.9057 25.7436 63.2032 25.8376C63.5007 25.9312 63.803 26.0016 64.1099 26.0486C64.4169 26.0954 64.7071 26.119 64.981 26.119C65.6421 26.119 66.2141 26.0251 66.6954 25.8376C67.1768 25.6498 67.576 25.3848 67.8923 25.0425C68.2087 24.7 68.4429 24.2826 68.5937 23.7902C68.7446 23.2977 68.8205 22.7465 68.8205 22.1367V15.9876H67.2056Z" fill="white"/>
<path fill-rule="evenodd" clip-rule="evenodd" d="M72.1535 17.5143C72.5076 17.2096 72.9397 17.0569 73.4494 17.0569C73.7233 17.0569 73.9617 17.1016 74.1649 17.1907C74.3681 17.28 74.5352 17.3995 74.6678 17.5495C74.7998 17.6997 74.8967 17.8731 74.9585 18.0701C75.0198 18.2671 75.0502 18.4736 75.0502 18.6892H71.5652C71.603 18.2109 71.7994 17.8192 72.1535 17.5143ZM75.3052 20.6875C75.1161 20.9596 74.8757 21.1729 74.5829 21.3276C74.2901 21.4825 73.9313 21.5599 73.506 21.5599C73.2603 21.5599 73.0246 21.5177 72.7978 21.4332C72.571 21.3488 72.3682 21.234 72.1886 21.0884C72.0094 20.9431 71.8649 20.7696 71.7564 20.5678C71.648 20.3662 71.5841 20.1435 71.5652 19.8994H76.7363C76.7457 19.8245 76.7504 19.7495 76.7504 19.6743V19.4492C76.7504 18.8395 76.6677 18.3071 76.5027 17.852C76.3371 17.3971 76.1077 17.0172 75.8154 16.7122C75.5226 16.4075 75.1753 16.1775 74.7741 16.0227C74.3723 15.8679 73.936 15.7905 73.4635 15.7905C72.9539 15.7905 72.4793 15.8774 72.0398 16.0509C71.6009 16.2246 71.2206 16.4684 70.8995 16.7826C70.5784 17.097 70.3259 17.4769 70.1415 17.9223C69.9577 18.368 69.8655 18.863 69.8655 19.4069C69.8655 19.9605 69.9577 20.4552 70.1415 20.8914C70.3259 21.3276 70.581 21.6959 70.9068 21.9961C71.2326 22.2964 71.6171 22.5286 72.0613 22.6926C72.505 22.8566 72.9916 22.9389 73.5206 22.9389C74.662 22.9389 75.5609 22.5776 76.2182 21.8555L75.3052 20.6875Z" fill="white"/>
</g>
<defs>
<clipPath id="clip0_33_13089">
<rect width="72.8095" height="22" fill="white" transform="translate(4 5)"/>
</clipPath>
</defs>
</svg>
