<svg width="100" height="32" viewBox="0 0 100 32" fill="none" xmlns="http://www.w3.org/2000/svg">
<g clip-path="url(#clip0_33_13111)">
<path d="M30.5277 6.00049C28.0354 6.00049 26.6135 7.41181 26.6135 9.74824C26.6135 12.0114 28.0359 13.4723 30.4793 13.4723C32.7284 13.4723 34.0408 12.3165 34.2598 10.479H32.5579C32.3995 11.5258 31.7554 12.1585 30.4914 12.1585C29.0937 12.1585 28.267 11.3435 28.267 9.7367C28.267 8.12986 29.0084 7.31491 30.4914 7.31491C31.707 7.31491 32.339 7.92281 32.5089 8.98173H34.1987C33.9798 7.20533 32.8252 6.00049 30.5277 6.00049Z" fill="white"/>
<path fill-rule="evenodd" clip-rule="evenodd" d="M38.6105 13.4723C40.9928 13.4723 42.4515 12.0241 42.4515 9.7119C42.4515 7.3028 40.8591 6.00049 38.6105 6.00049C36.2283 6.00049 34.7695 7.35182 34.7695 9.76092C34.7695 12.17 36.3619 13.4723 38.6105 13.4723ZM38.6105 7.31433C39.9235 7.31433 40.7986 8.08084 40.7986 9.76035C40.7986 11.3908 39.9961 12.1573 38.6105 12.1573C37.2976 12.1573 36.4224 11.3418 36.4224 9.71132C36.4224 8.08084 37.225 7.31433 38.6105 7.31433Z" fill="white"/>
<path d="M44.9676 6.12169H43.3389V13.3507H44.9676V8.44659C45.3934 7.63106 45.9764 7.25386 46.9126 7.25386C48.0793 7.25386 48.675 7.78967 48.675 8.9576V13.3502H50.3037V8.72574C50.3037 6.99778 49.3559 6 47.6783 6C46.1954 6 45.3807 6.76708 44.9676 8.04459V6.12169Z" fill="white"/>
<path d="M52.6865 11.1355H50.9846C51.1667 12.5837 52.2492 13.4725 54.5831 13.4725C56.9169 13.4725 57.9015 12.511 57.9015 11.2214C57.9015 10.1267 57.379 9.37178 55.7987 9.18952L53.6227 8.93402C52.9786 8.86077 52.7476 8.60527 52.7476 8.17962C52.7476 7.66862 53.1365 7.27931 54.3763 7.27931C55.6161 7.27931 56.0412 7.69284 56.1386 8.32554H57.8284C57.6215 6.95056 56.7337 6.00122 54.4247 6.00122C52.1156 6.00122 51.1794 6.98689 51.1794 8.27652C51.1794 9.40811 51.7751 10.0898 53.3675 10.2721L55.4582 10.5155C56.1513 10.6008 56.3333 10.8927 56.3333 11.282C56.3333 11.8051 55.8592 12.1944 54.6194 12.1944C53.3796 12.1944 52.8202 11.8535 52.6865 11.1355Z" fill="white"/>
<path fill-rule="evenodd" clip-rule="evenodd" d="M58.5208 9.76044C58.5208 11.8777 59.8337 13.4718 62.2892 13.4718C64.3436 13.4718 65.6076 12.4983 65.9723 11.0137H64.3067C64.0636 11.7318 63.4437 12.1574 62.3376 12.1574C61.1098 12.1574 60.3199 11.4394 60.1741 10.1498H66.0206C66.0327 7.61837 64.9387 6 62.3013 6C59.9305 6 58.5208 7.52148 58.5208 9.76044ZM64.3067 9.04238H60.1983C60.4052 7.88656 61.1588 7.27809 62.2892 7.27809C63.5774 7.27809 64.1973 7.97135 64.3067 9.04238Z" fill="white"/>
<path d="M68.4514 6.12169H66.8228V13.3507H68.4514V8.44659C68.8772 7.63106 69.4602 7.25386 70.3964 7.25386C71.5631 7.25386 72.1588 7.78967 72.1588 8.9576V13.3502H73.7875V8.72574C73.7875 6.99778 72.8398 6 71.1621 6C69.6792 6 68.8645 6.76708 68.4514 8.04459V6.12169Z" fill="white"/>
<path d="M76.1702 11.1355H74.4683C74.6504 12.5837 75.7329 13.4725 78.0668 13.4725C80.4007 13.4725 81.3852 12.511 81.3852 11.2214C81.3852 10.1267 80.8627 9.37178 79.2824 9.18952L77.1064 8.93402C76.4623 8.86077 76.2313 8.60527 76.2313 8.17962C76.2313 7.66862 76.6202 7.27931 77.86 7.27931C79.0998 7.27931 79.525 7.69284 79.6223 8.32554H81.3121C81.1053 6.95056 80.2175 6.00122 77.9084 6.00122C75.5993 6.00122 74.6631 6.98689 74.6631 8.27652C74.6631 9.40811 75.2588 10.0898 76.8512 10.2721L78.9419 10.5155C79.635 10.6008 79.817 10.8927 79.817 11.282C79.817 11.8051 79.3429 12.1944 78.1031 12.1944C76.8633 12.1944 76.3039 11.8535 76.1702 11.1355Z" fill="white"/>
<path d="M86.1244 15.1272L89.1513 6.12231H87.4489L85.3582 12.4499L83.1822 6.12231H81.3835L83.7537 12.5595H85.3219L84.9209 13.7885H82.174V15.1272H86.1244Z" fill="white"/>
<path d="M90.8285 11.136H89.1267C89.3088 12.5842 90.3913 13.473 92.7251 13.473C95.059 13.473 96.0436 12.5115 96.0436 11.2219C96.0436 10.1272 95.521 9.37226 93.9407 9.19001L91.7647 8.93451C91.1206 8.86126 90.8896 8.60576 90.8896 8.18011C90.8896 7.66911 91.2785 7.2798 92.5183 7.2798C93.7581 7.2798 94.1833 7.69333 94.2806 8.32603H95.9704C95.7636 6.95105 94.8758 6.00171 92.5667 6.00171C90.2576 6.00171 89.3214 6.98738 89.3214 8.27701C89.3214 9.4086 89.9171 10.0903 91.5095 10.2726L93.6002 10.516C94.2933 10.6013 94.4754 10.8932 94.4754 11.2825C94.4754 11.8056 94.0012 12.1949 92.7614 12.1949C91.5216 12.1949 90.9622 11.854 90.8285 11.136Z" fill="white"/>
<path fill-rule="evenodd" clip-rule="evenodd" d="M22.856 16.0613V13.3505V6.12207H15.6355H12.9277C7.44477 6.12207 3 10.5717 3 16.0607C3 21.5497 7.44534 25.9999 12.9283 25.9999C18.4112 25.9999 22.856 21.5502 22.856 16.0613ZM10.6716 11.0914L15.6355 6.12207V13.3505H22.856L17.891 18.3221H10.6716V11.0914Z" fill="white"/>
</g>
<defs>
<clipPath id="clip0_33_13111">
<rect width="94" height="20" fill="white" transform="translate(3 6)"/>
</clipPath>
</defs>
</svg>
