<svg width="120" height="32" viewBox="0 0 120 32" fill="none" xmlns="http://www.w3.org/2000/svg">
<path d="M64.2647 11.0581V14.5781C64.8407 13.8101 65.6727 13.4261 66.7607 13.4261C67.2727 13.4261 67.7207 13.4901 68.1047 13.6821C68.5527 13.8101 68.9367 14.0661 69.2567 14.3861C69.6407 14.7061 69.8967 15.0901 70.0887 15.5381C70.2807 15.9861 70.3447 16.5621 70.3447 17.2021C70.3447 17.9061 70.2167 18.5461 69.9607 19.1861C69.7047 19.7621 69.3207 20.2741 68.7447 20.6581C68.1687 21.0421 67.5287 21.2341 66.6967 21.2341C65.5447 21.2341 64.7127 20.8501 64.2007 20.1461V21.0421H61.9607V11.0581H64.2647ZM55.7527 13.2341C60.1047 13.2341 59.7207 17.9061 59.7207 17.9061H53.8327C54.0887 18.8021 54.8567 19.4421 55.9447 19.4421C57.2887 19.4421 57.9927 18.6741 57.9927 18.6741L59.2727 19.9541C58.6327 20.5941 57.7367 21.1701 55.9447 21.1701C53.1927 21.1701 51.7207 19.3141 51.7207 17.3941C51.7207 15.4741 52.7447 13.2341 55.7527 13.2341ZM109.577 13.1701C111.433 13.1701 112.649 13.8741 112.649 13.8741L111.817 15.5381C109.321 14.2581 108.233 15.1541 108.233 15.6021C108.233 16.0501 108.681 16.1141 110.409 16.4341C112.137 16.7541 112.905 17.4581 112.905 18.6101C112.905 19.7621 111.881 21.0421 109.449 21.0421C107.017 21.0421 105.929 20.2741 105.929 20.2741L106.697 18.6741C108.617 19.8901 110.793 19.5061 110.793 18.8021C110.793 18.2901 110.089 18.1621 109.321 18.0341L109.001 17.9701C108.873 17.9701 108.681 17.9061 108.553 17.9061C107.593 17.7781 106.121 17.2021 106.121 15.7301C106.057 14.1941 107.721 13.1701 109.577 13.1701ZM98.6967 10.4821V16.4981L101.961 13.4261H104.585L101.385 16.4981L104.905 21.1061H102.281L99.8487 17.9701L98.6967 19.0581V21.1061H96.5207V10.4821H98.6967ZM90.9527 13.1701C92.4887 13.1701 93.8327 13.9381 94.6007 15.0901L92.7447 16.1781C92.4247 15.5381 91.7207 15.0901 90.9527 15.0901C89.8007 15.0901 88.9047 15.9861 88.9047 17.1381C88.9047 18.2901 89.8007 19.1861 90.9527 19.1861C91.7207 19.1861 92.3607 18.8021 92.6807 18.1621L94.5367 19.1861C93.7687 20.2741 92.4887 21.0421 90.9527 21.0421C88.5847 21.0421 86.7287 19.2501 86.7287 17.0741C86.6647 14.8981 88.5847 13.1701 90.9527 13.1701ZM80.9047 13.1701C83.2727 13.1701 85.1287 14.9621 85.1287 17.1381C85.1287 19.3141 83.2087 21.1061 80.9047 21.1061C78.5367 21.1061 76.6807 19.3141 76.6807 17.1381C76.6167 14.8981 78.5367 13.1701 80.9047 13.1701ZM42.4407 13.3621V20.9781H40.0727V13.3621H42.4407ZM38.0247 11.0581V12.9781H32.7767V15.5381H37.3847V17.3941H32.7767V20.9781H30.4087V11.0581H38.0247ZM47.4967 14.3221C47.4967 14.3221 48.3287 13.0421 50.0567 13.2341V15.3461C50.0567 15.3461 48.2007 14.8981 47.4967 16.8181V21.0421H45.2567V13.3621H47.3687L47.4967 14.3221ZM74.3767 10.4821V20.9781H72.0087V10.4821H74.3767ZM66.1207 15.0901C64.8407 15.0901 64.2007 15.8581 64.2007 17.4581C64.2007 18.0341 64.3927 18.5461 64.7127 18.9941C65.0327 19.3781 65.5447 19.5701 66.2487 19.5701C66.6967 19.5701 67.0807 19.4421 67.3367 19.2501C67.5927 18.9941 67.7847 18.7381 67.9127 18.4181C68.0407 18.0981 68.1047 17.7141 68.1047 17.3941C68.1047 16.7541 67.9767 16.1781 67.6567 15.7941C67.2727 15.2821 66.7607 15.0901 66.1207 15.0901ZM80.9047 15.0261C79.7527 15.0261 78.8567 15.9221 78.8567 17.0741C78.8567 18.2261 79.7527 19.1221 80.9047 19.1221C82.0567 19.1221 82.9527 18.2261 82.9527 17.0741C82.8887 15.9861 81.9927 15.0261 80.9047 15.0261ZM55.7527 14.8341C54.6007 14.8341 53.9607 15.5381 53.7687 16.4341H57.6087C57.6087 16.2421 57.2247 14.8341 55.7527 14.8341ZM41.2887 9.77808C42.0567 9.77808 42.6967 10.3541 42.6967 11.0581C42.6967 11.7621 42.0567 12.3381 41.2887 12.3381C40.5207 12.3381 39.8807 11.7621 39.8807 11.0581C39.8807 10.3541 40.5207 9.77808 41.2887 9.77808Z" fill="white"/>
<path d="M22.552 8C22.936 8 23.192 8.256 23.192 8.64V23.36C23.192 23.744 22.936 24 22.552 24H7.64C7.256 24 7 23.744 7 23.36V8.64C7 8.256 7.256 8 7.64 8H22.552ZM15.128 12.416L10.648 19.52H19.672L15.128 12.416Z" fill="white"/>
</svg>
