<svg width="130" height="32" viewBox="0 0 130 32" fill="none" xmlns="http://www.w3.org/2000/svg">
<path d="M15.4537 2C7.75112 2 1.5 8.31491 1.5 16.0324C1.5 23.7426 7.75112 30 15.4537 30C23.1634 30 29.472 23.7426 29.472 16.0324C29.472 8.31491 23.1634 2 15.4537 2Z" fill="white"/>
<path fill-rule="evenodd" clip-rule="evenodd" d="M5.91887 20.5631H5.05664V21.045H7.47807V20.5631H6.34999V11.3856H6.40029L9.15222 21.2105H9.52583L12.17 11.7093V20.5631H11.0922V21.045H14.3256V20.5631H13.3556V11.2274H14.3256V10.7383H12.0047L9.6911 18.9448L7.42777 10.7383H5.05664V11.2274H5.91887V20.5631Z" fill="#09090C"/>
<path fill-rule="evenodd" clip-rule="evenodd" d="M18.3712 17.0031L17.3437 12.5726L16.1582 17.0031H18.3712ZM14.757 20.5634L17.4012 10.5803H18.2059L20.5268 20.5634H21.389V21.0452H18.0982V20.5634H19.176L18.479 17.485H16.0504L15.2385 20.5634H16.3737V21.0452H14.3259V20.5634H14.757Z" fill="#09090C"/>
<path fill-rule="evenodd" clip-rule="evenodd" d="M21.3887 20.5634C22.0354 20.9949 23.221 21.2107 23.9179 21.2107C25.4268 21.2107 26.6124 20.3979 26.5046 18.2402C26.3968 14.3563 22.251 15.4352 22.1935 12.846C22.1432 11.7095 22.9479 10.904 23.7023 10.904C24.7298 10.904 25.5346 11.8174 25.6998 13.4357H26.0735V11.1701C25.4843 10.7961 24.4568 10.5803 23.8101 10.5803C22.5743 10.5803 21.2234 11.4434 21.3313 13.4357C21.439 17.0031 25.5346 15.9746 25.6424 18.7796C25.6998 20.1318 24.8879 20.8295 23.9754 20.8295C22.6246 20.8295 21.8701 19.7506 21.7121 17.9166H21.3887V20.5634Z" fill="#09090C"/>
<path fill-rule="evenodd" clip-rule="evenodd" d="M35.5 22.1703C35.5 23.4128 36.1206 25.3593 37.9824 25.3593C39.8443 25.3593 40.4752 23.4128 40.4752 22.1703C40.4752 20.9279 39.8443 18.9917 37.9824 18.9917C36.1206 18.9917 35.5 20.9279 35.5 22.1703ZM36.7412 22.1703C36.7412 20.8555 36.7412 19.3024 37.9824 19.3024C39.2237 19.3024 39.2237 20.8555 39.2237 22.1703C39.2237 23.4957 39.2237 25.0488 37.9824 25.0488C36.7412 25.0488 36.7412 23.4957 36.7412 22.1703Z" fill="white"/>
<path fill-rule="evenodd" clip-rule="evenodd" d="M41.7888 19.4573V24.8931H40.8579V25.2762H43.7334V24.8931H42.8749V19.4573H43.8886V19.1468H42.8749V17.749C42.8749 16.9725 42.9577 16.4962 43.4955 16.4962C43.961 16.4962 44.1161 16.7343 44.1161 17.2831C44.1161 17.749 44.2713 17.9043 44.5816 17.9043C44.8919 17.9043 45.0471 17.749 45.0471 17.3555C45.0471 16.4237 44.1161 16.1855 43.4955 16.1855C42.6474 16.1855 41.7888 16.4962 41.7888 17.9043V19.1468H40.8579V19.4573H41.7888Z" fill="white"/>
<path fill-rule="evenodd" clip-rule="evenodd" d="M47.302 24.8103C47.995 25.2037 49.0811 25.3591 49.7844 25.3591C51.2532 25.3591 52.422 24.7378 52.422 22.7913C52.422 19.4573 48.3053 20.3893 48.3053 18.1321C48.3053 17.1278 49.1638 16.4962 49.8568 16.4962C50.8705 16.4962 51.6463 17.2003 51.8014 18.6808H52.1117L52.029 16.6515C51.4911 16.3408 50.6326 16.1855 50.012 16.1855C48.7708 16.1855 47.4571 16.8896 47.4571 18.598C47.4571 21.7041 51.5635 20.8552 51.5635 23.2572C51.5635 24.4997 50.7153 25.0485 49.8568 25.0485C48.4605 25.0485 47.6847 24.1166 47.5296 22.5635H47.2192L47.302 24.8103Z" fill="white"/>
<path fill-rule="evenodd" clip-rule="evenodd" d="M53.8906 24.8942H52.9597V25.2773H55.8352V24.8942H54.9767V19.1479H52.9597V19.4585H53.8906V24.8942ZM53.7355 17.2014C53.7355 17.5948 54.0458 17.9054 54.4388 17.9054C54.7491 17.9054 55.0595 17.5948 55.0595 17.2014C55.0595 16.7354 54.7491 16.4248 54.4388 16.4248C54.0458 16.4248 53.7355 16.6527 53.7355 17.2014Z" fill="white"/>
<path fill-rule="evenodd" clip-rule="evenodd" d="M55.991 24.8934V25.2765H58.7837V24.8934H58.0079V21.7044C58.0079 20.5448 58.4734 19.4576 59.4767 19.4576C60.1801 19.4576 60.3352 20.0789 60.3352 20.7726V24.8934H59.4767V25.2765H62.2695V24.8934H61.4213V20.7001C61.4213 19.4576 60.8731 18.9917 59.8698 18.9917C58.9389 18.9917 58.3182 19.4576 58.0079 20.3067V19.1471H55.991V19.4576H56.9218V24.8934H55.991Z" fill="white"/>
<path fill-rule="evenodd" clip-rule="evenodd" d="M64.8344 18.9917C63.9759 18.9917 63.1277 19.6855 63.1277 20.8555C63.1277 21.3938 63.2001 21.7044 63.438 22.1703C62.9726 22.4085 62.5071 22.8744 62.5071 23.5682C62.5071 24.2722 62.9726 24.8934 63.5932 25.0488C63.045 25.1213 62.5795 25.5147 62.5795 26.2083C62.5795 27.689 64.131 27.9996 65.0619 27.9996C66.1584 27.9996 67.5547 27.4508 67.5547 25.7424C67.5547 24.3447 66.779 23.8063 65.7653 23.8063H63.9035C63.2829 23.8063 62.9726 23.7234 62.9726 23.2575C62.9726 22.8744 63.438 22.481 63.7483 22.481C64.0586 22.7191 64.5241 22.8744 64.9895 22.8744C65.9205 22.8744 66.779 22.0978 66.779 20.8555C66.779 20.462 66.6962 20.1513 66.4687 19.7683C66.4687 19.613 66.6962 19.4576 66.779 19.4576C67.1617 19.4576 66.8514 20.2342 67.3996 20.2342C67.6271 20.2342 67.7823 19.9961 67.7823 19.6855C67.7823 19.2195 67.3996 18.9917 67.0893 18.9917C66.6962 18.9917 66.4687 19.2195 66.3135 19.4576C65.9205 19.0642 65.3723 18.9917 64.8344 18.9917ZM64.131 20.7726C64.131 19.9961 64.2138 19.3024 64.9895 19.3024C65.7653 19.3024 65.7653 20.2342 65.7653 21.0107C65.7653 21.632 65.6826 22.5638 64.9068 22.5638C64.131 22.5638 64.131 21.4767 64.131 20.7726ZM65.6101 25.0488C66.6238 25.0488 67.1617 25.204 67.1617 26.0531C67.1617 26.9849 66.3135 27.689 65.1447 27.689C64.0586 27.689 63.3553 27.2955 63.3553 26.2912C63.3553 25.1213 64.131 25.0488 65.6101 25.0488Z" fill="white"/>
<path fill-rule="evenodd" clip-rule="evenodd" d="M71.2783 24.4275C71.5059 25.204 71.8989 25.2765 72.4368 25.2765H73.2953V24.8934C72.6747 24.8934 72.4368 25.0488 72.4368 24.1169V20.7726C72.4368 19.7683 72.0541 18.9917 70.4198 18.9917C69.5717 18.9917 68.4028 19.2195 68.4028 20.462C68.4028 20.8555 68.6407 20.9279 68.8683 20.9279C69.1786 20.9279 69.4165 20.7001 69.4165 20.2342C69.4165 19.4576 69.8819 19.3024 70.4198 19.3024C71.1232 19.3024 71.3507 19.8408 71.3507 20.7001V21.2386C70.0371 21.7044 68.0925 21.7044 68.0925 23.5682C68.0925 24.7381 68.4856 25.3593 69.5717 25.3593C70.2646 25.3593 70.8853 25.204 71.2783 24.4275ZM71.3507 21.5491V23.0298C71.3507 23.8788 70.968 24.9659 70.0371 24.9659C69.4165 24.9659 69.3337 24.3447 69.3337 23.5682C69.3337 22.3257 69.7992 22.0978 70.4198 21.8598L71.3507 21.5491Z" fill="white"/>
<path fill-rule="evenodd" clip-rule="evenodd" d="M73.3677 27.9996H76.3156V27.689H75.3847V24.5C75.6226 25.1213 76.1604 25.3593 76.7811 25.3593C78.4153 25.3593 79.1083 23.8788 79.1083 22.1703C79.1083 19.9236 78.105 18.9917 76.9362 18.9917C76.2432 18.9917 75.7777 19.2195 75.3847 19.9961V19.1471H73.4504V19.4576H74.2986V27.689H73.3677V27.9996ZM75.3847 21.632C75.3847 19.7683 76.1604 19.3748 76.6259 19.3748C77.6396 19.3748 77.9499 20.6173 77.9499 22.1703C77.9499 23.9616 77.4844 24.9659 76.6259 24.9659C75.5398 24.9659 75.3847 23.7234 75.3847 22.6363V21.632Z" fill="white"/>
<path fill-rule="evenodd" clip-rule="evenodd" d="M79.884 22.1703C79.884 23.4128 80.4322 25.3593 82.3665 25.3593C84.2283 25.3593 84.8489 23.4128 84.8489 22.1703C84.8489 20.9279 84.2283 18.9917 82.3665 18.9917C80.4322 18.9917 79.884 20.9279 79.884 22.1703ZM81.1252 22.1703C81.1252 20.8555 81.1252 19.3024 82.3665 19.3024C83.6077 19.3024 83.6077 20.8555 83.6077 22.1703C83.6077 23.4957 83.6077 25.0488 82.3665 25.0488C81.1252 25.0488 81.1252 23.4957 81.1252 22.1703Z" fill="white"/>
<path fill-rule="evenodd" clip-rule="evenodd" d="M86.1731 24.8934H85.2422V25.2765H88.1073V24.8934H87.2592V22.0978C87.2592 20.7726 87.8798 19.4576 88.4176 19.4576C88.5728 19.4576 88.6556 19.613 88.6556 19.7683V20.3895C88.6556 20.7726 88.8831 20.8555 89.1934 20.8555C89.5865 20.8555 89.7416 20.5448 89.7416 20.0789C89.7416 19.3748 89.3486 18.9917 88.7279 18.9917C87.9522 18.9917 87.4867 19.7683 87.2592 20.462V19.1471H85.2422V19.4576H86.1731V24.8934Z" fill="white"/>
<path fill-rule="evenodd" clip-rule="evenodd" d="M94.6338 21.7873C94.6338 20.1513 93.858 18.9917 92.3789 18.9917C90.8274 18.9917 89.8965 20.462 89.8965 22.1703C89.8965 23.9616 90.5171 25.3593 92.2238 25.3593C93.3926 25.3593 94.0132 24.9659 94.4786 23.4957L94.1683 23.4128C93.9304 24.2722 93.465 24.9659 92.5341 24.9659C91.1377 24.9659 91.1377 23.8063 91.1377 22.0151V21.7873H94.6338ZM91.1377 21.4767C91.1377 20.7001 91.3653 19.3024 92.2238 19.3024C93.3099 19.3024 93.3926 20.5448 93.3926 21.4767H91.1377Z" fill="white"/>
<path fill-rule="evenodd" clip-rule="evenodd" d="M36.4309 12.6962H35.5V13.0793H37.9824V12.6962H36.824V4.62023L39.6891 13.1621H39.927L42.7198 4.62023H42.7922V12.6962H41.5509V13.0793H44.9643V12.6962H43.961V4.46494H44.9643V4.1543H42.5646L40.62 9.81787L40.2373 11.2157L39.8443 9.90066L37.91 4.1543H35.5V4.46494H36.4309V12.6962Z" fill="white"/>
<path fill-rule="evenodd" clip-rule="evenodd" d="M45.4297 9.97308C45.4297 11.2156 46.0503 13.162 47.9121 13.162C49.8567 13.162 50.3946 11.2156 50.3946 9.97308C50.3946 8.73064 49.8567 6.79443 47.9121 6.79443C46.0503 6.79443 45.4297 8.73064 45.4297 9.97308ZM46.6709 9.97308C46.6709 8.65815 46.6709 7.10507 47.9121 7.10507C49.1534 7.10507 49.2361 8.65815 49.2361 9.97308C49.2361 11.2984 49.1534 12.8514 47.9121 12.8514C46.6709 12.8514 46.6709 11.2984 46.6709 9.97308Z" fill="white"/>
<path fill-rule="evenodd" clip-rule="evenodd" d="M50.8599 12.6962V13.0792H53.6526V12.6962H52.8044V9.50715C52.8044 8.34751 53.3423 7.26036 54.2732 7.26036C55.049 7.26036 55.1317 7.88158 55.1317 8.57529V12.6962H54.356V13.0792H57.0763V12.6962H56.2178V8.5028C56.2178 7.26036 55.7524 6.79443 54.6663 6.79443C53.8078 6.79443 53.1872 7.26036 52.8769 8.10943H52.8044V6.94972H50.8599V7.26036H51.7184V12.6962H50.8599Z" fill="white"/>
<path fill-rule="evenodd" clip-rule="evenodd" d="M62.2692 9.59C62.2692 7.95408 61.4211 6.79443 59.9419 6.79443C58.4732 6.79443 57.5422 8.26472 57.5422 9.97308C57.5422 11.7643 58.1629 13.162 59.7868 13.162C61.028 13.162 61.6486 12.7686 62.1141 11.2984L61.8038 11.2156C61.4935 12.0749 61.028 12.7686 60.1799 12.7686C58.7835 12.7686 58.7007 11.6089 58.7007 9.81779V9.59H62.2692ZM58.7007 9.27936C58.7007 8.5028 58.9386 7.10507 59.8695 7.10507C60.9556 7.10507 61.028 8.34751 61.028 9.27936H58.7007Z" fill="white"/>
<path fill-rule="evenodd" clip-rule="evenodd" d="M62.5793 7.26021H63.4378V11.6088C63.4378 12.3854 63.5103 13.0791 64.5963 13.0791C65.4548 13.0791 65.8375 12.696 66.0754 11.9919L65.7651 11.9195C65.61 12.3026 65.4548 12.696 65.0618 12.696C64.5963 12.696 64.5239 12.3026 64.5239 11.6088V7.26021H65.6824V6.94957H64.5239V5.24121H63.4378V6.94957H62.5793V7.26021Z" fill="white"/>
<path fill-rule="evenodd" clip-rule="evenodd" d="M69.2509 12.2302C69.4888 13.0068 69.8715 13.0792 70.4197 13.0792H71.2679V12.6962C70.6473 12.6962 70.4197 12.8514 70.4197 11.9196V8.57529C70.4197 7.571 70.0266 6.79443 68.4027 6.79443C67.5442 6.79443 66.3858 7.02222 66.3858 8.26472C66.3858 8.65815 66.6133 8.73064 66.8512 8.73064C67.1615 8.73064 67.3891 8.5028 67.3891 8.03693C67.3891 7.26036 67.8545 7.10507 68.4027 7.10507C69.0957 7.10507 69.3337 7.6435 69.3337 8.5028V9.04122C68.0097 9.50715 66.0754 9.50715 66.0754 11.3709C66.0754 12.5408 66.4582 13.162 67.5442 13.162C68.2476 13.162 68.8682 13.0068 69.2509 12.2302ZM69.3337 9.3518V10.8324C69.3337 11.6814 68.9406 12.7686 68.0097 12.7686C67.4718 12.7686 67.3167 12.1474 67.3167 11.3709C67.3167 10.1284 67.7821 9.90058 68.4027 9.6625L69.3337 9.3518Z" fill="white"/>
<path fill-rule="evenodd" clip-rule="evenodd" d="M72.2813 12.6962H71.3503V13.0792H74.2155V12.6962H73.3673V9.90058C73.3673 8.57529 73.9052 7.26036 74.5258 7.26036C74.6809 7.26036 74.7637 7.41565 74.7637 7.571V8.19222C74.7637 8.57529 74.9913 8.65815 75.3015 8.65815C75.6946 8.65815 75.8498 8.34751 75.8498 7.88158C75.8498 7.17757 75.4567 6.79443 74.8361 6.79443C73.9879 6.79443 73.5949 7.571 73.3673 8.26472V6.94972H71.3503V7.26036H72.2813V12.6962Z" fill="white"/>
<path fill-rule="evenodd" clip-rule="evenodd" d="M78.1775 13.784C77.8672 14.9437 77.4742 15.4096 77.1638 15.4096C76.8535 15.4096 76.7811 15.099 76.7811 14.7883C76.7811 14.4777 76.6984 14.1671 76.3157 14.1671C76.0054 14.1671 75.8502 14.4052 75.8502 14.8712C75.8502 15.3371 76.2329 15.8755 76.8535 15.8755C78.2499 15.8755 78.4051 13.9393 78.7154 13.0799L80.6599 7.17829H81.4357V6.95044H79.2636V7.17829H80.2669L79.1808 10.595C79.0257 11.0609 78.9533 11.5269 78.9533 11.5269H78.8706C78.8706 11.5269 78.8706 11.0609 78.7154 10.595L77.6293 7.17829H78.643V6.95044H75.6123V7.17829H76.3881L78.4051 13.0799L78.1775 13.784Z" fill="white"/>
<path fill-rule="evenodd" clip-rule="evenodd" d="M83.6075 12.6972H82.7593V13.0803H85.159V12.6972H84.0005L84.8487 9.90165H86.8656L87.6414 12.6972H86.5553V13.0803H89.9687V12.6972H88.9654L86.4002 4H86.0899L83.6075 12.6972ZM86.7105 9.50822H84.8487L85.552 7.26144L85.7796 6.17429H85.8623L86.0899 7.26144L86.7105 9.50822Z" fill="white"/>
<path fill-rule="evenodd" clip-rule="evenodd" d="M93.4647 13.0804H95.4817V12.6974H94.5508V6.95093H92.5338V7.26157H93.4647V10.523C93.4647 11.6826 92.9993 12.7699 91.9856 12.7699C91.2926 12.7699 91.1375 12.0761 91.1375 11.3721V6.95093H89.2756V7.26157H90.1238V11.4549C90.1238 12.6974 90.5892 13.1632 91.6753 13.1632C92.5338 13.1632 93.1544 12.6974 93.4647 11.838V13.0804Z" fill="white"/>
<path fill-rule="evenodd" clip-rule="evenodd" d="M95.637 7.26168H96.4851V11.6103C96.4851 12.3868 96.5679 13.0805 97.7263 13.0805C98.5021 13.0805 98.8952 12.6975 99.1227 11.9934L98.8952 11.921C98.6573 12.304 98.5021 12.6975 98.1194 12.6975C97.654 12.6975 97.5712 12.304 97.5712 11.6103V7.26168H98.74V6.95104H97.5712V5.24268H96.4851V6.95104H95.637V7.26168Z" fill="white"/>
<path fill-rule="evenodd" clip-rule="evenodd" d="M99.0503 12.6977V13.0808H101.915V12.6977H101.067V9.5087C101.067 8.34905 101.533 7.26191 102.536 7.26191C103.312 7.26191 103.395 7.88313 103.395 8.57684V12.6977H102.536V13.0808H105.329V12.6977H104.481V8.50434C104.481 7.26191 103.932 6.79598 102.929 6.79598C102.071 6.79598 101.378 7.26191 101.067 8.11097V4.15576H99.0503V4.4664H99.9812V12.6977H99.0503Z" fill="white"/>
<path fill-rule="evenodd" clip-rule="evenodd" d="M105.722 9.97479C105.722 11.2173 106.342 13.1637 108.204 13.1637C110.066 13.1637 110.687 11.2173 110.687 9.97479C110.687 8.73235 110.066 6.79614 108.204 6.79614C106.342 6.79614 105.722 8.73235 105.722 9.97479ZM106.963 9.97479C106.963 8.65986 106.963 7.10678 108.204 7.10678C109.445 7.10678 109.445 8.65986 109.445 9.97479C109.445 11.3001 109.445 12.8531 108.204 12.8531C106.963 12.8531 106.963 11.3001 106.963 9.97479Z" fill="white"/>
<path fill-rule="evenodd" clip-rule="evenodd" d="M112.011 12.6979H111.08V13.0809H114.028V12.6979H113.097V9.90229C113.097 8.577 113.717 7.26207 114.255 7.26207C114.41 7.26207 114.566 7.41736 114.566 7.57271V8.19393C114.566 8.577 114.804 8.65986 115.031 8.65986C115.424 8.65986 115.579 8.34922 115.579 7.88329C115.579 7.17928 115.186 6.79614 114.566 6.79614C113.79 6.79614 113.324 7.57271 113.097 8.26643V6.95143H111.08V7.26207H112.011V12.6979Z" fill="white"/>
<path fill-rule="evenodd" clip-rule="evenodd" d="M116.583 12.6977H115.652V13.0808H118.6V12.6977H117.669V6.95128H115.652V7.26192H116.583V12.6977ZM116.51 5.00484C116.51 5.39821 116.82 5.70885 117.131 5.70885C117.513 5.70885 117.824 5.39821 117.824 5.00484C117.824 4.53891 117.513 4.22827 117.131 4.22827C116.738 4.22827 116.51 4.53891 116.51 5.00484Z" fill="white"/>
<path fill-rule="evenodd" clip-rule="evenodd" d="M118.755 7.26168H119.613V11.6103C119.613 12.3868 119.686 13.0805 120.854 13.0805C121.63 13.0805 122.013 12.6975 122.251 11.9934L121.94 11.921C121.785 12.304 121.63 12.6975 121.237 12.6975C120.772 12.6975 120.699 12.304 120.699 11.6103V7.26168H121.858V6.95104H120.699V5.24268H119.613V6.95104H118.755V7.26168Z" fill="white"/>
<path fill-rule="evenodd" clip-rule="evenodd" d="M124.03 13.7845C123.802 14.9441 123.337 15.4101 123.027 15.4101C122.716 15.4101 122.716 15.0995 122.716 14.7888C122.716 14.4782 122.634 14.1676 122.251 14.1676C121.941 14.1676 121.703 14.4057 121.703 14.8716C121.703 15.3376 122.096 15.876 122.716 15.876C124.113 15.876 124.268 13.9398 124.578 13.0804L126.512 7.17878H127.288V6.95093H125.199V7.17878H126.202L125.116 10.5955C124.961 11.0614 124.806 11.5274 124.806 11.5274C124.806 11.5274 124.733 11.0614 124.578 10.5955L123.492 7.17878H124.495V6.95093H121.475V7.17878H122.323L124.268 13.0804L124.03 13.7845Z" fill="white"/>
</svg>
