<svg width="172" height="36" viewBox="0 0 172 36" fill="none" xmlns="http://www.w3.org/2000/svg">
<path d="M30.7026 10.9863C29.9573 10.5338 28.9991 10.5338 28.1739 10.9863L22.398 14.4998L18.4586 16.7889L12.6826 20.3024C11.9373 20.7549 10.9791 20.7549 10.154 20.3024L5.54917 17.5608C4.80388 17.1083 4.29815 16.2566 4.29815 15.3516V9.94824C4.29815 9.04325 4.75065 8.1915 5.54917 7.739L10.0741 5.07726C10.8194 4.62477 11.7776 4.62477 12.6028 5.07726L17.1277 7.739C17.873 8.1915 18.3787 9.04325 18.3787 9.94824V13.4617L22.3181 11.0928V7.5793C22.3181 6.67431 21.8656 5.82255 21.0671 5.37005L12.6826 0.339372C11.9373 -0.113124 10.9791 -0.113124 10.154 0.339372L1.63642 5.37005C0.811278 5.82255 0.385399 6.67431 0.385399 7.5793V17.6939C0.385399 18.5989 0.837895 19.4506 1.63642 19.9031L10.154 24.9338C10.8993 25.3863 11.8575 25.3863 12.6826 24.9338L18.4586 21.5002L22.398 19.1312L28.1739 15.6976C28.9192 15.2451 29.8775 15.2451 30.7026 15.6976L35.2275 18.3593C35.9728 18.8118 36.4786 19.6636 36.4786 20.5686V25.9719C36.4786 26.8769 36.0261 27.7286 35.2275 28.1811L30.7026 30.9227C29.9573 31.3752 28.9991 31.3752 28.1739 30.9227L23.649 28.261C22.9037 27.8085 22.398 26.9567 22.398 26.0518V22.5383L18.4586 24.9072V28.4207C18.4586 29.3257 18.9111 30.1775 19.7096 30.6299L28.2272 35.6606C28.9725 36.1131 29.9307 36.1131 30.7558 35.6606L39.2734 30.6299C40.0187 30.1775 40.5244 29.3257 40.5244 28.4207V18.3061C40.5244 17.4011 40.0719 16.5494 39.2734 16.0969L30.7026 10.9863Z" fill="white"/>
<path d="M56.2284 32.76V24.3489C57.1334 25.4935 58.7837 26.1323 60.6735 26.1323C65.5179 26.1323 68.8185 22.6454 68.8185 17.3486C68.8185 12.0517 65.8107 8.56482 61.0728 8.56482C58.8902 8.56482 57.2133 9.36334 56.2284 10.6942V8.83099H51.5704V32.7334H56.2284V32.76ZM60.1146 22.0864C57.6125 22.0864 55.9623 20.1966 55.9623 17.3486C55.9623 14.4739 57.6125 12.584 60.1146 12.584C62.5634 12.584 64.2403 14.4739 64.2403 17.3486C64.2137 20.1966 62.5368 22.0864 60.1146 22.0864Z" fill="white"/>
<path d="M79.3853 26.1323C84.5757 26.1323 88.3022 22.4059 88.3022 17.3486C88.3022 12.2913 84.5757 8.56482 79.3853 8.56482C74.195 8.56482 70.4685 12.2913 70.4685 17.3486C70.4685 22.4059 74.195 26.1323 79.3853 26.1323ZM79.3853 22.0864C76.8833 22.0864 75.1532 20.17 75.1532 17.3486C75.1532 14.5005 76.8567 12.584 79.3853 12.584C81.8874 12.584 83.6175 14.5005 83.6175 17.3486C83.6175 20.17 81.8874 22.0864 79.3853 22.0864Z" fill="white"/>
<path d="M95.755 25.8659V1.45776H91.097V25.8659H95.755Z" fill="white"/>
<path d="M109.756 8.85706L106.242 19.8234L102.702 8.85706H97.9376L104.06 25.7325L101.584 32.7595H106.029L108.398 25.8123L114.52 8.85706H109.756Z" fill="white"/>
<path d="M127.643 10.5345C126.711 9.36334 125.035 8.56482 122.985 8.56482C118.061 8.56482 115.08 12.0517 115.08 17.3486C115.08 22.6454 118.061 26.1323 123.065 26.1323C125.035 26.1323 126.818 25.387 127.696 24.136V26.3718C127.696 27.9689 126.658 29.0602 125.247 29.0602H117.449V32.7334H125.966C129.772 32.7334 132.328 30.3911 132.328 26.851V8.83099H127.643V10.5345ZM123.783 22.0864C121.308 22.0864 119.658 20.2232 119.658 17.3486C119.658 14.4739 121.308 12.584 123.783 12.584C126.286 12.584 127.936 14.4739 127.936 17.3486C127.936 20.2232 126.286 22.0864 123.783 22.0864Z" fill="white"/>
<path d="M144.066 26.1323C149.256 26.1323 152.983 22.4059 152.983 17.3486C152.983 12.2913 149.256 8.56482 144.066 8.56482C138.875 8.56482 135.149 12.2913 135.149 17.3486C135.149 22.4059 138.875 26.1323 144.066 26.1323ZM144.066 22.0864C141.564 22.0864 139.834 20.17 139.834 17.3486C139.834 14.5005 141.537 12.584 144.066 12.584C146.568 12.584 148.298 14.5005 148.298 17.3486C148.271 20.17 146.568 22.0864 144.066 22.0864Z" fill="white"/>
<path d="M160.196 25.8659V16.5498C160.196 14.3672 161.633 12.7701 163.683 12.7701C165.626 12.7701 166.93 14.2607 166.93 16.3102V25.8659H171.615V15.2722C171.615 11.3594 169.139 8.59119 165.306 8.59119C162.991 8.59119 161.127 9.57604 160.169 11.2263V8.85736H155.511V25.8659H160.196Z" fill="white"/>
</svg>
