<svg width="40" height="40" viewBox="0 0 40 40" fill="none" xmlns="http://www.w3.org/2000/svg">
<rect width="40" height="40" rx="20" fill="#BD2694"/>
<path fill-rule="evenodd" clip-rule="evenodd" d="M22.728 16.9354C21.96 16.1675 20.899 15.6925 19.7271 15.6925C18.5552 15.6925 17.4942 16.1675 16.7262 16.9354C15.9583 17.7033 15.4833 18.7643 15.4833 19.9363C15.4833 21.1082 15.9583 22.1692 16.7262 22.9371C17.4942 23.7051 18.5552 24.1801 19.7271 24.1801C20.8991 24.1801 21.96 23.7051 22.728 22.9371C23.4959 22.1692 23.9709 21.1082 23.9709 19.9363C23.9709 18.7643 23.4959 17.7033 22.728 16.9354ZM24.6069 8.65697C23.5312 8.18518 22.3767 7.86198 21.1695 7.71301V13.477C21.6183 13.5819 22.0488 13.7314 22.456 13.9205C22.8633 14.1097 23.249 14.3393 23.6083 14.6042L27.6512 10.5613C26.7409 9.78791 25.7166 9.14364 24.6069 8.65697ZM32.0899 16.0218C32.5128 17.2688 32.7422 18.6068 32.7422 20C32.7422 21.2938 32.5444 22.5398 32.1775 23.7097C31.8437 24.774 31.3709 25.7754 30.7807 26.6924L26.5817 22.4934C26.7228 22.1424 26.8347 21.7777 26.9147 21.4022C27.0115 20.948 27.0625 20.4788 27.0625 20C27.0625 19.409 26.985 18.8338 26.8395 18.284C26.7155 17.8151 26.5418 17.3662 26.3244 16.9433L30.4485 12.8192C31.1423 13.7918 31.6987 14.8687 32.0899 16.0218ZM24.861 31.2272C26.0516 30.6725 27.1383 29.9352 28.0848 29.0519L24.0627 25.0298C23.6599 25.3843 23.2134 25.6916 22.732 25.9427C22.243 26.1978 21.719 26.3944 21.1695 26.5231V32.2871C22.4713 32.1263 23.7127 31.7622 24.861 31.2272ZM10.4941 28.3483C8.48396 26.1484 7.25781 23.2183 7.25781 20C7.25781 16.7817 8.48396 13.8517 10.4941 11.6517C12.4344 9.52826 15.1043 8.08319 18.1066 7.71307V13.4771C16.6648 13.8144 15.4021 14.6173 14.4858 15.7187C13.519 16.8808 12.9375 18.3732 12.9375 20C12.9375 21.6268 13.519 23.1193 14.4858 24.2814C15.4021 25.3827 16.6648 26.1856 18.1066 26.5229V32.2869C15.1043 31.9169 12.4344 30.4718 10.4941 28.3483ZM20.0745 22.0008V22.4488C20.0745 22.6602 19.9031 22.8316 19.6917 22.8316C19.4803 22.8316 19.3089 22.6602 19.3089 22.4488V22.0036H18.835C18.6236 22.0036 18.4522 21.8322 18.4522 21.6208C18.4522 21.4094 18.6236 21.238 18.835 21.238H19.9909C20.1168 21.238 20.2317 21.1862 20.3151 21.1027C20.3986 21.0192 20.4504 20.9045 20.4504 20.7785C20.4504 20.6525 20.3985 20.5377 20.3151 20.4543C20.2317 20.3708 20.1168 20.319 19.9909 20.319H19.4632C19.1259 20.319 18.8196 20.1812 18.5978 19.9594C18.3759 19.7375 18.2382 19.4312 18.2382 19.0939C18.2382 18.7566 18.3759 18.4502 18.5978 18.2284C18.7852 18.0409 19.033 17.9135 19.3089 17.8785V17.4237C19.3089 17.2122 19.4803 17.0408 19.6917 17.0408C19.9031 17.0408 20.0745 17.2122 20.0745 17.4237V17.8688H20.6191C20.8305 17.8688 21.0019 18.0402 21.0019 18.2516C21.0019 18.463 20.8305 18.6344 20.6191 18.6344H19.4633C19.3374 18.6344 19.2226 18.6863 19.1391 18.7697C19.0557 18.8531 19.0039 18.968 19.0039 19.0939C19.0039 19.2199 19.0557 19.3347 19.1391 19.4181C19.2226 19.5016 19.3374 19.5534 19.4633 19.5534H19.9909C20.3282 19.5534 20.6346 19.6912 20.8565 19.913C21.0783 20.1348 21.216 20.4412 21.216 20.7785C21.216 21.1158 21.0783 21.4221 20.8565 21.644C20.6531 21.8475 20.3787 21.9801 20.0745 22.0008Z" fill="white"/>
</svg>
