<svg width="20" height="20" viewBox="0 0 20 20" fill="none" xmlns="http://www.w3.org/2000/svg">
<path fill-rule="evenodd" clip-rule="evenodd" d="M14.288 3.37594C13.7739 3.33394 13.1137 3.33329 12.1665 3.33329L6.24984 3.33329C5.7896 3.33329 5.41651 2.9602 5.41651 2.49996C5.41651 2.03972 5.7896 1.66663 6.24984 1.66663L12.2022 1.66662C13.1053 1.66662 13.8338 1.66661 14.4237 1.71481C15.0311 1.76443 15.5646 1.86927 16.0581 2.12076C16.8421 2.52024 17.4796 3.15765 17.879 3.94166C18.1305 4.43524 18.2354 4.96873 18.285 5.5761C18.3332 6.166 18.3332 6.89445 18.3332 7.7976L18.3332 13.75C18.3332 14.2102 17.9601 14.5833 17.4998 14.5833C17.0396 14.5833 16.6665 14.2102 16.6665 13.75L16.6665 7.83329C16.6665 6.88612 16.6659 6.22586 16.6239 5.71182C16.5827 5.20752 16.5058 4.91778 16.394 4.69831C16.1543 4.22791 15.7719 3.84546 15.3015 3.60577C15.082 3.49395 14.7923 3.41714 14.288 3.37594ZM5.13439 4.58329L11.9486 4.58329C12.3879 4.58328 12.7669 4.58326 13.079 4.60877C13.4085 4.63568 13.7362 4.69511 14.0515 4.85577C14.5219 5.09546 14.9043 5.47791 15.144 5.94831C15.3047 6.26363 15.3641 6.59131 15.391 6.92077C15.4165 7.23291 15.4165 7.61189 15.4165 8.05119L15.4165 14.8654C15.4165 15.3047 15.4165 15.6837 15.391 15.9958C15.3641 16.3253 15.3047 16.653 15.144 16.9683C14.9043 17.4387 14.5219 17.8211 14.0515 18.0608C13.7362 18.2215 13.4085 18.2809 13.079 18.3078C12.7669 18.3333 12.3879 18.3333 11.9486 18.3333L5.13437 18.3333C4.69509 18.3333 4.31612 18.3333 4.00398 18.3078C3.67453 18.2809 3.34685 18.2215 3.03153 18.0608C2.56113 17.8211 2.17868 17.4387 1.93899 16.9683C1.77833 16.653 1.7189 16.3253 1.69198 15.9958C1.66648 15.6837 1.66649 15.3047 1.66651 14.8654L1.66651 8.05117C1.66649 7.61188 1.66648 7.23291 1.69198 6.92077C1.7189 6.59132 1.77833 6.26363 1.93899 5.94832C2.17867 5.47791 2.56112 5.09546 3.03153 4.85578C3.34685 4.69511 3.67453 4.63568 4.00398 4.60877C4.31613 4.58326 4.6951 4.58328 5.13439 4.58329ZM4.1397 6.2699C3.91332 6.2884 3.82938 6.31979 3.78818 6.34079C3.63138 6.42068 3.5039 6.54817 3.424 6.70497C3.40301 6.74617 3.37161 6.8301 3.35311 7.05649C3.33382 7.2926 3.33317 7.60283 3.33317 8.08329L3.33317 14.8333C3.33317 15.3138 3.33382 15.624 3.35311 15.8601C3.37161 16.0865 3.40301 16.1704 3.424 16.2116C3.5039 16.3684 3.63138 16.4959 3.78818 16.5758C3.82939 16.5968 3.91332 16.6282 4.1397 16.6467C4.37582 16.666 4.68605 16.6666 5.16651 16.6666L11.9165 16.6666C12.397 16.6666 12.7072 16.666 12.9433 16.6467C13.1697 16.6282 13.2536 16.5968 13.2948 16.5758C13.4516 16.4959 13.5791 16.3684 13.659 16.2116C13.68 16.1704 13.7114 16.0865 13.7299 15.8601C13.7492 15.624 13.7498 15.3138 13.7498 14.8333L13.7498 8.08329C13.7498 7.60283 13.7492 7.2926 13.7299 7.05649C13.7114 6.8301 13.68 6.74617 13.659 6.70497C13.5791 6.54816 13.4516 6.42068 13.2948 6.34079C13.2536 6.31979 13.1697 6.28839 12.9433 6.2699C12.7072 6.25061 12.397 6.24996 11.9165 6.24996L5.16651 6.24996C4.68604 6.24996 4.37582 6.25061 4.1397 6.2699Z" fill="white"/>
</svg>
