<svg width="28" height="28" viewBox="0 0 28 28" fill="none" xmlns="http://www.w3.org/2000/svg">
<path d="M22.8487 13.515C22.7644 12.954 22.2835 12.5497 21.7175 12.5497H12.5482L10.883 10.5787C10.53 10.1643 10.012 9.9032 9.46707 9.9032H3.50949C3.08497 9.9032 2.68151 10.102 2.40692 10.4271C2.13317 10.7531 2.01609 11.1995 2.08769 11.6181L2.24604 12.5497H2.14159C1.80804 12.5497 1.49218 12.6853 1.27655 12.938C1.05756 13.1915 0.962376 13.5217 1.01376 13.8511L2.86344 25.8521C2.97547 26.574 3.59709 27.1055 4.32736 27.1055H23.5292C23.8628 27.1055 24.1787 26.9589 24.3943 26.7087C24.6108 26.4561 24.7085 26.1284 24.6588 25.7991L22.8487 13.515Z" fill="white"/>
<path d="M18.2835 4.55884H11.1114C10.6169 4.55884 10.216 5.00526 10.216 5.50053C10.216 5.9958 10.6178 6.44222 11.1114 6.44222H18.2835C18.7797 6.44222 19.1797 5.9958 19.1797 5.50053C19.1797 5.00526 18.778 4.55884 18.2835 4.55884Z" fill="white"/>
<path d="M26.7334 11.1579C26.527 10.9179 26.2246 10.7671 25.9071 10.7671H23.8721L24.3353 15.0586L25.4413 22.5559L26.9894 12.0339C27.0324 11.7206 26.9414 11.3988 26.7334 11.1579Z" fill="white"/>
<path d="M8.49484 2.62484H21.0148V11.1245H22.7465V1.99481C22.7457 1.39172 22.242 0.893921 21.6389 0.893921H7.79321C7.13116 0.893921 6.6123 1.43889 6.6123 2.10093V8.68097H8.49484V2.62484Z" fill="white"/>
<path d="M18.2834 8.02002H11.1112C10.6808 8.02002 10.322 8.36031 10.2352 8.77725C10.8493 8.93391 11.4077 9.26831 11.828 9.76105L11.9586 9.90256H18.2834C18.7795 9.90256 19.1796 9.45614 19.1796 8.96087C19.1796 8.4656 18.7778 8.02002 18.2834 8.02002Z" fill="white"/>
</svg>
