<svg width="28" height="28" viewBox="0 0 28 28" fill="none" xmlns="http://www.w3.org/2000/svg">
<path d="M12.8718 9.52083H14.7419C15.4515 9.50279 16.0641 9.91936 15.9717 10.6243L15.3622 15.2646C15.2568 16.0685 16.4642 16.2775 16.8658 15.2646C17.1107 14.6439 18.3032 14.9099 18.044 15.8775C17.8269 16.686 16.6101 17.5593 15.8516 17.5593H15.1046C13.9899 17.5155 13.027 16.5174 13.2041 15.2646L13.7261 11.5328L12.5965 11.1962C11.6012 10.9289 11.8022 9.48848 12.8718 9.52083ZM14.9556 5.45212C15.7692 5.45212 16.4284 6.10359 16.4284 6.90563C16.4284 7.70923 15.7692 8.3607 14.9556 8.3607C14.1408 8.3607 13.4813 7.70923 13.4813 6.90563C13.4813 6.10359 14.1408 5.45212 14.9556 5.45212ZM7.82776 2.73425C5.77162 2.73425 4.69891 7.75932 4.69891 14.0011C4.69891 20.2414 5.77131 25.2659 7.82776 25.2659H22.3999C23.5389 25.2659 23.654 23.2324 22.4242 23.2324H10.9778C8.8566 23.2324 8.8566 20.3497 10.9778 20.3497H21.5764C22.6687 20.3497 23.2747 18.9705 23.2747 17.6971L23.2778 5.48945C23.2778 3.96283 22.207 2.73456 20.8782 2.73456L7.82776 2.73425Z" fill="white"/>
</svg>
