<svg width="32" height="32" viewBox="0 0 32 32" fill="none" xmlns="http://www.w3.org/2000/svg">
<g filter="url(#filter0_b_2036_414)">
<rect width="32" height="32" rx="8" fill="url(#paint0_linear_2036_414)"/>
<path d="M13.0841 15.7872C13.0841 14.2923 14.2963 13.0802 15.7921 13.0802C17.2878 13.0802 18.5007 14.2923 18.5007 15.7872C18.5007 17.2821 17.2878 18.4942 15.7921 18.4942C14.2963 18.4942 13.0841 17.2821 13.0841 15.7872ZM11.6198 15.7872C11.6198 18.0902 13.4877 19.957 15.7921 19.957C18.0964 19.957 19.9643 18.0902 19.9643 15.7872C19.9643 13.4842 18.0964 11.6174 15.7921 11.6174C13.4877 11.6174 11.6198 13.4842 11.6198 15.7872ZM19.1545 11.4521C19.1544 11.6448 19.2115 11.8333 19.3186 11.9936C19.4256 12.1538 19.5779 12.2788 19.756 12.3526C19.9341 12.4265 20.1302 12.4458 20.3193 12.4083C20.5085 12.3708 20.6823 12.278 20.8187 12.1418C20.9551 12.0056 21.048 11.832 21.0857 11.643C21.1234 11.454 21.1042 11.258 21.0305 11.08C20.9567 10.9019 20.8318 10.7496 20.6715 10.6425C20.5112 10.5354 20.3227 10.4781 20.1299 10.478H20.1295C19.871 10.4782 19.6231 10.5808 19.4403 10.7635C19.2575 10.9461 19.1547 11.1938 19.1545 11.4521ZM12.5094 22.3971C11.7173 22.361 11.2867 22.2291 11.0005 22.1177C10.6212 21.9701 10.3505 21.7943 10.0659 21.5103C9.78135 21.2263 9.60519 20.956 9.45815 20.5769C9.34661 20.2911 9.21466 19.8606 9.17864 19.0689C9.13925 18.2129 9.13139 17.9558 9.13139 15.7873C9.13139 13.6187 9.1399 13.3623 9.17864 12.5056C9.21472 11.7139 9.34765 11.2843 9.45815 10.9976C9.60584 10.6185 9.78174 10.348 10.0659 10.0636C10.3501 9.77917 10.6205 9.60312 11.0005 9.45617C11.2865 9.34469 11.7173 9.21282 12.5094 9.17683C13.3659 9.13746 13.6232 9.1296 15.7921 9.1296C17.961 9.1296 18.2185 9.13811 19.0757 9.17683C19.8679 9.21288 20.2977 9.34573 20.5846 9.45617C20.9639 9.60312 21.2346 9.77956 21.5192 10.0636C21.8038 10.3476 21.9793 10.6185 22.127 10.9976C22.2385 11.2835 22.3705 11.7139 22.4065 12.5056C22.4459 13.3623 22.4537 13.6187 22.4537 15.7873C22.4537 17.9558 22.4459 18.2122 22.4065 19.0689C22.3704 19.8606 22.2378 20.2909 22.127 20.5769C21.9793 20.956 21.8034 21.2265 21.5192 21.5103C21.235 21.7941 20.9639 21.9701 20.5846 22.1177C20.2986 22.2292 19.8679 22.3611 19.0757 22.3971C18.2192 22.4364 17.9619 22.4443 15.7921 22.4443C13.6222 22.4443 13.3657 22.4364 12.5094 22.3971ZM12.4422 7.71593C11.5772 7.75529 10.9861 7.89237 10.4699 8.0931C9.93534 8.3004 9.48279 8.57851 9.03057 9.02975C8.57834 9.48099 8.30078 9.93398 8.09336 10.4682C7.8925 10.9844 7.75535 11.5748 7.71596 12.4393C7.67591 13.3051 7.66675 13.5819 7.66675 15.7872C7.66675 17.9925 7.67591 18.2693 7.71596 19.1351C7.75535 19.9996 7.8925 20.59 8.09336 21.1062C8.30078 21.6401 8.57841 22.0936 9.03057 22.5447C9.48273 22.9957 9.93534 23.2734 10.4699 23.4813C10.9871 23.682 11.5772 23.8191 12.4422 23.8585C13.309 23.8978 13.5855 23.9077 15.7921 23.9077C17.9987 23.9077 18.2756 23.8985 19.142 23.8585C20.007 23.8191 20.5977 23.682 21.1142 23.4813C21.6485 23.2734 22.1014 22.9959 22.5536 22.5447C23.0058 22.0934 23.2828 21.6401 23.4908 21.1062C23.6916 20.59 23.8295 19.9996 23.8682 19.1351C23.9076 18.2686 23.9167 17.9925 23.9167 15.7872C23.9167 13.5819 23.9076 13.3051 23.8682 12.4393C23.8288 11.5748 23.6916 10.9841 23.4908 10.4682C23.2828 9.9343 23.0051 9.4817 22.5536 9.02975C22.1021 8.5778 21.6485 8.3004 21.1149 8.0931C20.5977 7.89237 20.007 7.75464 19.1426 7.71593C18.2763 7.67656 17.9993 7.66675 15.7927 7.66675C13.5861 7.66675 13.309 7.67591 12.4422 7.71593Z" fill="white"/>
</g>
<defs>
<filter id="filter0_b_2036_414" x="-80" y="-80" width="192" height="192" filterUnits="userSpaceOnUse" color-interpolation-filters="sRGB">
<feFlood flood-opacity="0" result="BackgroundImageFix"/>
<feGaussianBlur in="BackgroundImageFix" stdDeviation="40"/>
<feComposite in2="SourceAlpha" operator="in" result="effect1_backgroundBlur_2036_414"/>
<feBlend mode="normal" in="SourceGraphic" in2="effect1_backgroundBlur_2036_414" result="shape"/>
</filter>
<linearGradient id="paint0_linear_2036_414" x1="16.8718" y1="3.26912" x2="16.8718" y2="29.4061" gradientUnits="userSpaceOnUse">
<stop stop-color="white" stop-opacity="0.1"/>
<stop offset="1" stop-color="white" stop-opacity="0.03"/>
</linearGradient>
</defs>
</svg>
