<svg width="48" height="48" viewBox="0 0 48 48" fill="none" xmlns="http://www.w3.org/2000/svg">
<g clip-path="url(#clip0_33_13202)">
<path fill-rule="evenodd" clip-rule="evenodd" d="M35.5078 6.10636L25.9408 14.2679L25.9414 14.2673L25.8419 14.152C24.5216 12.6187 24.7 10.3042 26.2396 8.99068L32.9599 3.25783C34.6023 1.85686 35.7601 1.13081 37.7888 0.667226C43.7518 -0.287208 46.3458 5.59619 46.3458 5.59619L42.7559 8.65833C42.7184 7.01591 40.7379 5.48768 40.7379 5.48768C38.5172 3.68392 35.5078 6.10636 35.5078 6.10636ZM43.1109 15.5581L43.1157 15.554C43.1186 15.5516 43.1214 15.5493 43.124 15.5467C48.2291 11.1836 46.9895 7.32722 46.9628 7.24598C46.9622 7.24541 46.9622 7.24484 46.9622 7.24484L25.5835 25.4416L34.9096 36.3499C36.7077 34.8007 36.9162 32.0897 35.3755 30.2842L31.3629 25.5802L43.1109 15.5581ZM15.8346 4.58663C15.8372 4.58921 15.8395 4.59202 15.8419 4.59491L15.846 4.5997L25.8493 16.3637L30.5596 12.3584C32.3673 10.8206 35.0784 11.0336 36.6248 12.834L25.7016 22.1431L7.53841 0.735382H7.53954C7.62078 0.708681 11.4794 -0.524698 15.834 4.5872L15.8346 4.58663ZM6.38173 12.1869L14.5285 21.767L14.5279 21.7664L14.412 21.8658C12.8764 23.1839 10.5619 23.0015 9.25128 21.4602L3.52922 14.7309C2.13109 13.0862 1.40674 11.9278 0.94657 9.89793C0.00122732 3.93386 5.8886 1.34894 5.8886 1.34894L8.94506 4.94283C7.30321 4.97749 5.77157 6.95567 5.77157 6.95567C3.96383 9.17359 6.38173 12.1869 6.38173 12.1869ZM4.84187 32.4459L4.84189 32.4459L4.84668 32.4419L16.5947 22.4198L12.5821 17.7158C11.0414 15.9103 11.2499 13.1992 13.048 11.65L22.3742 22.5584L0.995427 40.7551L0.995297 40.7546L0.994859 40.754C0.968158 40.6727 -0.27147 36.8164 4.83361 32.4532C4.83618 32.4507 4.83898 32.4483 4.84187 32.4459ZM12.4492 41.8942L22.0162 33.7327L22.1157 33.848C23.436 35.3814 23.2576 37.6959 21.718 39.0093L14.9978 44.7422C13.3553 46.1432 12.1975 46.8692 10.1688 47.3328C4.20527 48.2872 1.61126 42.4044 1.61126 42.4044L5.20118 39.3423C5.23867 40.9847 7.21912 42.5129 7.21912 42.5129C9.43989 44.3167 12.4492 41.8942 12.4492 41.8942ZM32.1204 43.4111C32.1197 43.4103 32.119 43.4095 32.1183 43.4087L32.1116 43.4008L22.1083 31.6369L17.398 35.6421C15.5903 37.18 12.8792 36.9669 11.3328 35.1666L22.256 25.8574L40.4192 47.2651H40.4181C40.3368 47.2918 36.4782 48.5252 32.1236 43.4133L32.123 43.4139C32.1221 43.413 32.1213 43.4121 32.1204 43.4111ZM41.5759 35.8131L33.4291 26.233L33.4297 26.2335L33.5456 26.1341C35.0812 24.8161 37.3957 24.9984 38.7063 26.5397L44.4284 33.2691C45.8265 34.9138 46.5509 36.0721 47.011 38.102C47.9558 44.0667 42.069 46.6516 42.069 46.6516L39.0125 43.0571C40.6544 43.0225 42.186 41.0443 42.186 41.0443C43.9938 38.8264 41.5759 35.8131 41.5759 35.8131Z" fill="url(#paint0_linear_33_13202)"/>
</g>
<defs>
<linearGradient id="paint0_linear_33_13202" x1="47.1139" y1="24" x2="0.84375" y2="24" gradientUnits="userSpaceOnUse">
<stop stop-color="#DC349E"/>
<stop offset="1" stop-color="#31D0D0"/>
</linearGradient>
<clipPath id="clip0_33_13202">
<rect width="48" height="48" fill="white"/>
</clipPath>
</defs>
</svg>
