<svg width="28" height="28" viewBox="0 0 28 28" fill="none" xmlns="http://www.w3.org/2000/svg">
<path d="M10.8647 20.4094C11.6183 22.1566 12.6689 23.7411 13.9999 25.1348C15.331 23.7411 16.3816 22.1566 17.1352 20.4094H10.8647Z" fill="white"/>
<path d="M11.9522 2.69971C10.5262 2.95685 9.15924 3.48174 7.92276 4.25458C6.54611 5.11503 5.37235 6.25423 4.47192 7.59068H9.09192C9.7788 5.80749 10.737 4.16949 11.9522 2.69971Z" fill="white"/>
<path d="M16.0479 25.3004C17.4738 25.0433 18.8408 24.5184 20.0773 23.7455C21.4539 22.8851 22.6277 21.7459 23.5281 20.4094H18.9081C18.2212 22.1926 17.2631 23.8306 16.0479 25.3004Z" fill="white"/>
<path d="M23.5281 7.59063C22.6277 6.25418 21.4539 5.11498 20.0773 4.25453C18.8408 3.48168 17.4738 2.95685 16.0479 2.69971C17.2631 4.16949 18.2212 5.80749 18.9081 7.59068L23.5281 7.59063Z" fill="white"/>
<path d="M17.1352 7.59074C16.3816 5.84358 15.331 4.25901 14 2.86536C12.6689 4.25907 11.6183 5.84358 10.8647 7.59074H17.1352Z" fill="white"/>
<path d="M4.47192 20.4095C5.37235 21.7459 6.54611 22.8851 7.92276 23.7456C9.15924 24.5184 10.5262 25.0433 11.9522 25.3004C10.737 23.8306 9.7788 22.1926 9.09192 20.4094H4.47192V20.4095Z" fill="white"/>
<path d="M0 9.23132V18.7688H28V9.23132H0ZM8.60601 16.7732H7.41869L5.23217 13.2933V16.8468H3.97316V10.8126L5.16048 10.8128L7.34699 14.2925V10.8037H8.60601V16.7732ZM12.6133 12.0846H10.6159V13.1957H12.4661V14.4547H10.6159V15.5659H12.6133V16.8249H9.35687V14.4547V13.1957V10.8255H12.6133V12.0846ZM18.5458 16.806L17.3519 16.8141L16.3721 13.4162L15.3917 16.8063L14.197 16.8144L13.0417 10.9737L14.2768 10.7294L14.9111 13.9361L15.795 10.8803L16.9517 10.8817L17.833 13.9381L18.4699 10.7377L19.7047 10.9835L18.5458 16.806ZM24.0023 15.2911C23.8414 16.1925 22.9817 16.8468 21.9582 16.8468C21.1298 16.8468 20.3522 16.513 19.8247 15.9309L20.7576 15.0854C21.0427 15.4 21.4915 15.5878 21.9582 15.5878C22.404 15.5878 22.7175 15.3244 22.7629 15.0698C22.8239 14.7283 22.3136 14.5118 22.1558 14.4535C21.4128 14.1795 20.7531 13.8858 20.7254 13.8735L20.6798 13.8531L20.638 13.8259C20.1232 13.4903 19.8579 12.9016 19.9457 12.2898C20.0392 11.6384 20.5149 11.1081 21.1873 10.9055C22.5104 10.5069 23.599 11.4047 23.6447 11.443L22.8345 12.4069L22.8384 12.41C22.8322 12.4051 22.2141 11.9112 21.5504 12.1111C21.2607 12.1983 21.2033 12.3902 21.192 12.4687C21.1842 12.5233 21.1801 12.6538 21.2946 12.7484C21.4668 12.8237 22.0092 13.0575 22.5914 13.2722C23.8167 13.7243 24.1236 14.6115 24.0023 15.2911Z" fill="white"/>
</svg>
