<svg width="24" height="24" viewBox="0 0 24 24" fill="none" xmlns="http://www.w3.org/2000/svg">
<g clip-path="url(#clip0_0_2184)">
<path fill-rule="evenodd" clip-rule="evenodd" d="M13.5 24C19.2938 24 24 19.2952 24 13.5C24 10.872 23.0325 8.46788 21.435 6.62588L22.1475 5.91262C22.4325 6.063 22.7925 6.01913 23.0288 5.78025C23.3213 5.48775 23.3213 5.01225 23.0288 4.71975L22.2788 3.96975C21.9863 3.67687 21.5137 3.67687 21.2212 3.96975C20.9812 4.20825 20.9362 4.56825 21.0862 4.85175L20.3737 5.56538C18.7087 4.12088 16.5825 3.19125 14.25 3.02625V1.5H15.75C16.1625 1.5 16.5 1.164 16.5 0.75C16.5 0.336 16.1625 0 15.75 0H11.25C10.8375 0 10.5 0.336 10.5 0.75C10.5 1.164 10.8375 1.5 11.25 1.5H12.75V3.02625C10.4175 3.19125 8.29127 4.12088 6.62627 5.56538L5.91376 4.85175C6.06376 4.56825 6.01876 4.20825 5.77876 3.96975C5.48626 3.67687 5.01374 3.67687 4.72124 3.96975L3.97124 4.71975C3.67874 5.01225 3.67874 5.48775 3.97124 5.78025C4.20749 6.01913 4.56748 6.063 4.85248 5.91262L5.56499 6.62588C3.96749 8.46788 3 10.872 3 13.5H0.75C0.3375 13.5 0 13.836 0 14.25C0 14.664 0.3375 15 0.75 15H3.10501C3.18001 15.513 3.29251 16.014 3.43501 16.5H1.875C1.4625 16.5 1.125 16.836 1.125 17.25C1.125 17.664 1.4625 18 1.875 18H4.01248C4.26373 18.5257 4.55251 19.0271 4.88626 19.5H3C2.5875 19.5 2.25 19.836 2.25 20.25C2.25 20.664 2.5875 21 3 21H6.15376C6.73876 21.5719 7.38748 22.0763 8.09248 22.5H4.125C3.7125 22.5 3.375 22.836 3.375 23.25C3.375 23.664 3.7125 24 4.125 24H13.5ZM19.185 11.5838C19.89 13.6751 19.4063 16.0781 17.7413 17.7427C15.4013 20.0842 11.5987 20.0842 9.25873 17.7427C6.91498 15.4012 6.91498 11.5988 9.25873 9.25725C10.92 7.59263 13.3237 7.11187 15.4162 7.8135C15.81 7.94512 16.2338 7.73362 16.365 7.341C16.4963 6.94875 16.2863 6.52313 15.8925 6.3915C13.2788 5.51438 10.275 6.11625 8.19749 8.19675C5.26874 11.1236 5.26874 15.8764 8.19749 18.8032C11.1225 21.7301 15.8775 21.7301 18.8025 18.8032C20.8838 16.7231 21.4875 13.7205 20.61 11.1068C20.4787 10.7141 20.0513 10.5026 19.6575 10.6343C19.2675 10.7659 19.0538 11.1915 19.185 11.5838ZM15.5288 12.5299L18.8025 9.25725C19.095 8.96475 19.095 8.48925 18.8025 8.19675C18.51 7.90388 18.0338 7.90388 17.7413 8.19675L14.4712 11.4694C13.635 11.0704 12.6 11.2166 11.91 11.9089C11.0325 12.7871 11.0325 14.2129 11.91 15.0911C12.7875 15.969 14.2125 15.969 15.09 15.0911C15.7837 14.3989 15.93 13.3661 15.5288 12.5299ZM14.0288 12.9697C14.3213 13.2622 14.3213 13.7378 14.0288 14.0303C13.7363 14.3231 13.2637 14.3231 12.9712 14.0303C12.6787 13.7378 12.6787 13.2622 12.9712 12.9697C13.2637 12.6769 13.7363 12.6769 14.0288 12.9697Z" fill="white"/>
</g>
<defs>
<clipPath id="clip0_0_2184">
<rect width="24" height="24" fill="white"/>
</clipPath>
</defs>
</svg>
