<svg width="32" height="32" viewBox="0 0 32 32" fill="none" xmlns="http://www.w3.org/2000/svg">
<circle cx="16" cy="16" r="16" fill="white"/>
<g clip-path="url(#clip0_33_13256)">
<path d="M14.8912 7C14.3434 7 13.8181 7.2175 13.4305 7.6051L7.3456 13.69C7.1152 13.9204 7 14.2225 7 14.5246C7 14.8267 7.1152 15.1288 7.3456 15.3592L11.3332 19.3468V12.2872C11.3332 11.7604 11.7568 11.3332 12.2836 11.3332H20.6662L24.9997 7H14.8909H14.8912Z" fill="#4A20EF"/>
<path d="M11.3335 20.6666H19.7128C20.2396 20.6666 20.6668 20.2394 20.6668 19.7126V12.653L24.6544 16.6406C24.8848 16.871 25 17.1731 25 17.4752C25 17.7773 24.8848 18.0794 24.6544 18.3098L18.5695 24.3947C18.1822 24.782 17.6569 24.9998 17.1088 24.9998H7L11.3332 20.6663L11.3335 20.6666Z" fill="#4A20EF"/>
</g>
<defs>
<clipPath id="clip0_33_13256">
<rect width="18" height="18" fill="white" transform="translate(7 7)"/>
</clipPath>
</defs>
</svg>
